<?xml version="1.0" encoding="utf-8"?>
<!-- Generator: Adobe Illustrator 22.0.0, SVG Export Plug-In . SVG Version: 6.00 Build 0)  -->
<svg version="1.1" id="Capa_1" xmlns="http://www.w3.org/2000/svg" xmlns:xlink="http://www.w3.org/1999/xlink" x="0px" y="0px"
	 viewBox="0 0 1200 1200" style="enable-background:new 0 0 1200 1200;" xml:space="preserve">
<style type="text/css">
	.st0{fill:#FFFFFF;}
	.st1{font-family:'MicrosoftTaiLe-Bold';}
	.st2{font-size:138.9959px;}
	.st3{letter-spacing:-3;}
	.st4{fill:#FFFFFF;stroke:#FFFFFF;stroke-miterlimit:10;}
	.st5{fill:#F2359C;}
</style>
<path class="st0" d="M459.5,686.4c-12.6,0-24.9,0.1-37.1-0.1c-1.1,0-2.5-1.6-3.2-2.8c-12.2-22.2-24.4-44.5-36.6-66.8
	c-0.8-1.4-1.7-2.8-3.2-4.1v36h12.2v37.5c-1.4,0.1-2.7,0.2-4.1,0.2c-17.1,0-34.1-0.1-51.2,0.1c-3.5,0-4.4-1-4.3-4.4
	c0.2-10.3,0.1-20.6,0.1-30.9c0-1.1,0.1-2.3,0.2-4c2.6,0,5-0.1,7.5,0c2.1,0.1,3.1-0.7,3.1-2.9c0-21.6,0-43.2,0-64.9
	c0-2-0.9-2.8-2.8-2.7c-2.5,0.1-4.9,0-7.6,0v-39.5c1.1-0.1,2.2-0.2,3.3-0.2c15.6,0,31.3,0,46.9-0.1c2.4,0,3.7,0.8,4.8,2.9
	c10.5,20,21.2,40,31.8,60c0.7,1.2,1.3,2.5,2.9,3.6c0-1.4,0-2.9,0-4.3c0-7.2-0.1-14.3,0-21.5c0.1-2.5-0.7-3.6-3.3-3.4
	c-2.2,0.2-4.4,0-6.9,0v-37h57.2v39.5c-1.9,0-3.7,0.2-5.5,0c-3.5-0.5-4.4,1-4.3,4.4c0.1,33.1,0.1,66.2,0.1,99.3
	C459.5,682.3,459.5,684.2,459.5,686.4 M369.6,569.6c1.1,1.7,1.6,2.4,2,3.1c16.6,29.8,33.6,59.3,49.6,89.4
	c4.7,8.9,9.7,14.2,20.1,11.8c0.4-0.1,0.8-0.1,1.2,0c3.7,0.6,4.5-1.1,4.5-4.6c-0.1-33.1-0.1-66.2-0.1-99.3v-5.4
	c3.7-0.4,8.1,0.3,9.4-1.4c1.6-2.1,0.6-6.2,0.7-9.4c0-0.3,0-0.5,0-0.8c0.4-3-1-3.8-3.8-3.7c-7.2,0.2-14.3,0.1-21.5,0.1
	c-8.4,0-8.4,0-8.4,8.4c0,7.1-0.6,6.4,6.1,6.4c0.9,0,1.8,0.2,2.8,0.2V647c-1.9-3.5-3.4-6-4.8-8.6c-16-28.6-31.9-57.3-48-85.9
	c-0.7-1.3-2.3-2.9-3.6-2.9c-9.5-0.2-19-0.2-28.5,0c-0.8,0-2.2,1.4-2.2,2.2c-0.3,3.2-0.3,6.5,0,9.7c0.1,1,1.6,2.5,2.7,2.6
	c2.3,0.4,4.8,0.1,7.3,0.1v95c-2.3,0-4.4,0.2-6.4-0.1c-3.1-0.4-3.9,1-3.7,3.8c0.2,2.5,0.2,5,0,7.4c-0.2,2.7,0.7,3.7,3.5,3.6
	c6.8-0.2,13.5,0,20.3,0c11.6,0,11.5,0,11-11.8c-0.1-2.1-0.7-3.1-3-3c-2.4,0.1-4.8,0-7.4,0V569.6z"/>
<path class="st0" d="M551,574.7c-0.7-1.6-1.6-2.9-1.7-4.1c-0.1-10.4-0.1-20.8,0-31.3c0-0.6,0.1-1.2,0.2-2.1h63.6v39.5
	c-4.7,0-9.5-0.2-14.3,0.1c-1.6,0.1-3.7,0.7-4.8,1.8c-5.3,5.3-10.4,11-15.7,16.3c-1.7,1.8-2,3.2-1,5.5c6.6,14.3,13.2,28.6,19.5,43
	c1.2,2.8,2.6,4.1,5.8,3.8c3.3-0.3,6.7-0.1,10.3-0.1v39h-63.6v-37.4h8.8c-3.2-7.2-6.1-13.7-8.8-19.8c-5,4.6-10,8.9-14.5,13.7
	c-1,1.1-0.6,3.6-0.9,5.9c3,0.1,5.4,0.2,8.5,0.4c0,2.4,0,4.8,0,7.2c0,8.9,0,17.7,0.1,26.6c0,1.9,0.3,3.6-2.6,3.6
	c-19-0.1-38-0.1-57-0.2c-0.4,0-0.7-0.2-1.3-0.4v-38.7c2.4,0,4.7-0.1,7,0c2.5,0.1,3.5-0.7,3.5-3.3c-0.1-21.2-0.1-42.5,0-63.7
	c0-2.8-1-3.7-3.7-3.5c-2.2,0.2-4.4,0-6.8,0v-39.5h60.7v35.4c-6.3,1.1-6.3,1.1-6.3,7.6c0,3,0,6,0,9c0,0.2,0.2,0.5,0.6,1.6
	C541.7,585.1,546.5,579.7,551,574.7 M600.4,659.5c-2.6,0-4.6,0.3-6.5-0.1c-1.4-0.3-3.2-1.2-3.7-2.3c-8.9-19.7-17.6-39.4-26.5-59.1
	c-1-2.1-0.4-3.2,1-4.7c7.3-7.9,14.7-15.8,21.8-24c3-3.4,5.9-6,10.8-5.1c2.3,0.4,3.3-0.7,3.2-3.1c-0.1-3-0.1-6-0.1-9
	c0-2-0.8-2.7-2.8-2.7c-10.9,0.1-21.9,0-32.8,0.1c-0.9,0-2.5,1.2-2.5,1.9c-0.2,4.1-0.1,8.3-0.1,12.9h12.3
	c-17.2,18.9-33.8,37.1-50.8,55.8v-55.7c6.4-0.3,6.4-0.3,6.4-6.6c0-1.7-0.1-3.4,0-5.1c0.2-2.5-0.8-3.4-3.4-3.4c-7,0.1-14.1,0-21.1,0
	c-11.6,0-11.6,0-11.3,11.5c0,0.1,0,0.3,0,0.4c-0.2,2.2,0.8,3.1,3,3c2.4-0.1,4.8,0,7.3,0v94.8c-3.5,0.4-8.1-0.3-9.4,1.5
	c-1.7,2.2-0.5,6.5-0.8,9.8c-0.2,2.6,0.7,3.7,3.5,3.6c8.1-0.1,16.2,0,24.2,0c8,0,8,0,8-8.1c0-5.9,0-5.9-5.8-6.6
	c-0.2,0-0.4-0.3-0.9-0.7c0-1.8,0.2-3.9,0-6c-1.2-9.2,1-16.7,8.2-23.3c7.1-6.6,13.1-14.3,19.9-21.9c7.8,17.4,15.5,34.5,23.4,52.3
	h-12.7c0,4.3-0.2,8,0.1,11.8c0.1,0.9,1.6,2.4,2.5,2.4c11.1,0.1,22.1,0.1,33.2-0.1c0.8,0,2.3-1.4,2.3-2.2
	C600.5,667.8,600.4,664,600.4,659.5"/>
<path class="st0" d="M122.8,537.2c1.4-0.1,2.6-0.2,3.9-0.2c27.7,0,55.5,0,83.2-0.1c2.7,0,4.6,0.7,6.4,2.7
	c6.8,7.5,13.9,14.8,20.7,22.3c1.2,1.4,2,3.7,2,5.5c0.2,14.1,0.1,28.1,0,42.2c0,1.6-0.7,3.6-1.8,4.8c-7,7.6-14.1,15-21.3,22.3
	c-1.3,1.3-3.5,2.2-5.3,2.2c-10.2,0.2-20.3,0.2-30.5,0.1c-3,0-3.8,0.9-3.7,3.8c0.1,2.7,0.3,4.6,3.8,4.3c2.4-0.2,4.9,0,7.5,0v38.9h-65
	v-38.9c2.5,0,4.9-0.1,7.4,0c2,0.1,2.8-0.8,2.8-2.8c0-21.6-0.1-43.2,0-64.9c0-2.3-1-2.9-3.1-2.9c-2.2,0.1-4.4,0-7,0V537.2z
	 M135.4,674c10.1,0,19.6,0,29.1,0c11.5,0,11.6-0.1,10.4-11.7c-0.1-1-1.6-2.5-2.7-2.6c-2.5-0.4-5.1-0.1-7.7-0.1v-32.9
	c1.9,0,3.6,0,5.3,0c11.5,0,22.9,0.1,34.4-0.1c2.1,0,4.6-1,6.1-2.4c4.9-4.5,9.5-9.2,14-14.1c1.2-1.3,2.1-3.3,2.1-5
	c0.2-11.2,0.1-22.4,0-33.6c0-1.5-0.7-3.3-1.7-4.4c-4.5-5-9.4-9.8-14-14.7c-1.9-2.1-4-2.9-6.8-2.8c-21.4,0.1-42.7,0.1-64.1,0.1
	c-0.8,0-1.7-0.2-2.3,0.1c-0.8,0.4-1.9,1.1-2,1.8c-0.2,4.2-0.1,8.4-0.1,13.1h10v95.1c-2.4,0-4.6,0.1-6.8,0c-2.3-0.1-3.4,0.6-3.3,3.1
	C135.5,666.2,135.4,669.8,135.4,674"/>
<path class="st0" d="M253.4,647.2c1.6,0,2.9,0,4.2,0c6.3,0,6.2,1,6.2-6c0-20.1-0.1-40.1,0.1-60.2c0-3.5-1-4.7-4.4-4.3
	c-1.9,0.2-3.8,0-6,0v-39.5h64.4v39.5c-2.4,0-4.7,0.1-7,0c-2.2-0.1-3.1,0.7-3.1,2.9c0,21.5,0,43,0,64.5c0,2.4,1,3.3,3.3,3.1
	c2.1-0.1,4.1,0,6.4,0c0.2,1.1,0.5,1.9,0.5,2.8c0,10.9-0.1,21.9,0,32.8c0,2.2-0.3,3.6-3.1,3.6c-19.9-0.1-39.9,0-59.8-0.1
	c-0.5,0-1-0.2-1.7-0.3V647.2z M295.4,565c3.6-0.7,8.2-0.3,9.5-2.2c1.6-2.3,0.4-6.5,0.6-9.9c0.2-2.8-0.9-3.6-3.6-3.5
	c-8.9,0.1-17.7,0-26.6,0c-9.1,0-9.1,0-9.1,8.9c0,6.6-0.7,5.9,5.7,6c1.4,0,2.8,0.1,4.2,0.2v94.4c-3.5,0.7-8.1,0.3-9.5,2.2
	c-1.6,2.2-0.5,6.5-0.6,9.9c0,0.1,0,0.3,0,0.4c-0.2,2,0.8,2.7,2.8,2.7c11.2,0,22.4,0,33.6,0c1.9,0,3-0.5,2.9-2.6
	c-0.1-3.1,0.1-6.3-0.2-9.4c-0.1-0.9-1.5-2.3-2.5-2.4c-2.4-0.4-4.8-0.1-7.4-0.1V565z"/>
<path class="st0" d="M164.1,612.4v-48.1c6,0,11.8,0,17.6,0c4.2,0,8.3,0,12.5,0c3.1,0,5.7-0.1,8.5,2.4c4.4,3.8,5.8,8,5.5,13.6
	c-0.4,7.1-0.1,14.3-0.2,21.5c0,3.1-6.1,10.5-9.1,10.5C187.5,612.5,176,612.4,164.1,612.4 M177.1,588.1L177.1,588.1
	c0,3-0.2,6,0.1,8.9c0.1,0.9,1.5,2.4,2.4,2.5c4.3,0.3,8.6,0.3,12.8,0c1-0.1,2.6-1.7,2.6-2.7c0.2-5.8,0.2-11.7,0-17.5
	c0-0.9-1.5-2.4-2.4-2.4c-4.3-0.3-8.6-0.1-12.8-0.1c-2,0-2.8,0.7-2.7,2.7C177.2,582.3,177.1,585.2,177.1,588.1"/>
<g>
	<text transform="matrix(1 0 0 1 622.082 684.0879)" class="st0 st1 st2 st3">HOUSE</text>
	<polyline class="st4" points="631.5,577.3 811.2,457.5 991,577.3 	"/>
	<polyline class="st0" points="1007.4,577.3 1007.4,526.9 1062.5,526.9 1062.5,577.3 	"/>
</g>
<g>
	<g>
		<path class="st5" d="M256,557.2L256,557.2C256,557.2,256,557.2,256,557.2C256,557.2,256,557.2,256,557.2z"/>
	</g>
	<g>
		<path class="st5" d="M256,557.2C256,557.3,256,557.3,256,557.2L256,557.2z"/>
	</g>
	<g>
		<path class="st5" d="M123.3,453.1c1.1-2.1,2.8-3.2,3.6-3c0.8,0.2,2.1,5.6,3.1,7.2c1.9-4,3.6-5.7,4.4-5.4c0.8,0.4,2,6.5,3.1,8.2
			c1.7-3.6,5.5-6.6,6.3-6.5c1.3,3.9,3.5,8.3,4.1,9.2c1.9-4.8,3.5-7.1,5.2-6.9c1.7,0.2,1.8,7.6,2.5,9.6c2.9-4.2,4.7-6.3,6.5-5.7
			c1.9,0.6,2.2,6.4,2.7,9.1c2-3.6,4.1-5.8,5.5-5.8c1.4,0,2.9,6.9,3.7,8.5c2.4-5.4,3.8-7.2,5.7-7.4c1.9-0.1,4.5,7.1,5,8.2
			c1.2-4.2,2.9-8.1,4.1-8c1.2,0.1,3.7,6.9,4.2,8c4-3.3,5.7-5.1,7-3.1c1.3,2,3.5,8,0.6,8c-0.8,0-3.6-0.5-4.8-1.9
			c-1.1,3-1.2,5-4.1,6.1c-2.9,1.2-6.6-2.2-7.3-2.8c-0.5,2.7,0.1,5.8-2,6.7c-2,1-5.5-0.8-7.6-1.8c-0.8,3.2,0,7-1.8,8.1
			c-1.9,1.1-6.1-1.8-7.4-2.4c0.6,3.6,0.8,6.9-1.2,7.8c-2,0.9-5.5-2.5-6.9-4.1c-0.8,3.5,0.7,6.9-0.8,7.9c-1.5,1-5.8-2.6-7.2-4.2
			c-0.5,3.5,0.9,7.3-0.7,7.6c-1.7,0.3-6.8-4.9-8.2-7.2c-1.2,4.1,1.4,9.5,0.3,10c-1,0.5-4.1-1.3-6.4-3.7c-0.9,2.3,0,6.6-0.6,7.2
			c-2.5-0.7-3.4-0.7-5.4-2.3c-0.2,8.9,7.7,12.8,13.7,13.9c6.1,1.1,33.2-5.1,46.2-8.8c12.9-3.7,33-9.6,57.7-2.9
			c-16.7,0-24.9,0.3-28.3,1.1c-5.4,5-7.4,7.9-9,8.4c4,0.5,10.2-0.7,12.3-2c-1,3.1-3.9,6.2-4.4,6.8c7.5-2.1,13.3-4.1,16.4-6
			c0,3.3-0.4,5.2-0.4,5.2c9.8-4,16.5-9.4,18.9-11.2c7.4-1,14.3-0.4,19.4,1.3c-1.4-3.9-2.5-7.9-1.9-11.7
			c4.8,11.1,10.3,16.8,10.6,18.6c1,5.8-26.2,6.6-40.9,21.2c5-1,12.3-0.2,12.3-0.2c-4.2,2.9-5.6,9.4-5.6,9.4
			c6.8-4.6,13.5-5.7,13.5-5.7c-2.9,3.3-3.1,10.4-3.1,11.4c5-6.7,11-9.3,12.2-9.6c0.1,3.7,2,8.7,2,8.7c2.2-6,3.7-8.2,4.4-8.5
			c0.7-0.3,5.8,4,6.2,4.4c1.8-7.9,2.9-9.1,9.5-9.2c6.6-0.1,23.5-1.5,25.8-13.1c1-5.3,0.7-12.1-3.5-16.5c27.1,4.5,52.4,5.8,74.6-2.6
			c-0.5-5.3,1-16.7,3.4-17.6c-1.8,25.5,16.2,35,24.2,37.2c5.3,1.5,12.7,0.8,13.6,2.8c0.9,2,2,7.6,1.5,9.1c3.1-0.9,5.9-3.9,5.9-3.9
			c2.9,3.5,6.2,6,6.2,6c1.5-4.8,2.6-6.9,2.6-6.9c2.9,3.4,8.7,6.5,8.7,6.5c-0.1-3.4-0.4-7.7,0.3-9.1c0.7-1.3,6.7,4,13.4,4.7
			c-9-8.7-15.5-21.1-18-26.1c-2.5-5-6.5-5.8-9.6-4.8c-3.5,1.2-8.4-5.9-9.9-9.5c8.8-2.5,34.5,0.9,54.1,5.1
			c19.5,4.2,55,14.2,79.9,12.9c24.9-1.3,49.7-13.1,53.8-36c-4.3,4.6-18.3,13.5-20.2,12.8c-1.9-0.7-2.1-7.2-3.8-8.4
			c-1.9-0.3-10.6,11.1-12.7,10.2c-2.1-0.9-1.7-9.5-3.8-10.7c-2.9-0.1-12.3,8.4-14.3,8.3c-2-0.1-1.9-11.3-5.1-14.5
			c-2.3-0.6-14,5.9-16.5,4.7c-2.5-1.2-4.3-11-6.2-12.7c-2.9-0.7-12.5,4-18.5,2.9c-0.8-0.9-1.7-8.7-3.4-10.8
			c-1.5-0.9-14.4,1.1-16.2-0.2c-1.8-1.3-2.8-6.7-4.6-9.8c-1.9-0.9-12.6,0.2-13.4-0.3c-0.8-0.6-2.9-5.8-3.8-9.2
			c-0.9-0.4-12.2,2.3-13.8,1.5c-1.6-0.8-4.7-7.6-6.4-8.1c-1.7-0.5-11.1,0.5-14.7,1.8c-0.4-0.2-3.6-5.9-5-7.3
			c-2.3-0.9-11.9,2.3-13.1,1.6c-1.2-0.7-4.8-3.7-7.1-5.7c-3.6-0.2-11.2,4.3-14.7,4.9c-0.7-0.8-2.8-2.9-6.7-5.7c-3.2,0-10.9,4-16.8,6
			c-1.3-1.4-5-4.8-6.9-6c-3.9-0.6-13.6,5.6-13.6,5.6c-1.3-2.9-4.7-4.6-4.7-4.6c-5.2,0.4-10.3,4.6-10.3,4.6c-2.4-3-4.5-4.3-4.5-4.3
			c-4.3,1.3-9.7,4.4-11.8,5.7c-1.9-2.3-5.6-4-5.6-4c-4.5,1.5-10,6.6-12,8.2c-1.8-2.3-5.9-3.3-5.9-3.3c-4.7,1.3-9.1,7-10.8,8.7
			c-2.8-2.5-7.8-3.7-7.8-3.7c-6.4,2.6-8.7,5.8-9.2,6.9c-2-1.7-4.7-2.3-5-2.3c-3.3,1.2-7.3,3.7-7.3,3.7c-3.4-2-9.4-1.6-9.4-1.6
			c-2.7,1.2-6.5,3.6-6.4,4.5c-15.2-8.4-34.4-13.4-41.5-10.2c-6.1-5.2-10.3-3.4-12.4-2.5c-4.3,1.9-7.5,6.1-17.1,6.4
			c-9.6,0.3-30.1-4.6-31.4-5.5c-1.3-0.9-7.3-4.7-11.9-4.2c-4.7,0.4-8.2,5.3-9.5,8.4C120.5,446.1,122.1,451.5,123.3,453.1z
			 M566.3,503.9c1.6-0.2,3.6,2,3,3c-0.5,1.1-4.3,1.8-5.2,0.1C563.2,505.3,564.6,504.2,566.3,503.9z M550.5,500.7
			c2.7-0.2,5.3,2.2,4.9,3.6c-0.4,1.4-4.1,3-6.7,1.5C546.3,504.3,547.5,501,550.5,500.7z M545.7,491.8c1.5,0.3,1,3-0.6,2.7
			C543.4,494.2,543.5,491.5,545.7,491.8z M531.8,495.8c3.1-1.6,8.1,1.6,7.9,3.7c-0.2,2.1-5.1,3.1-7.2,2
			C530.4,500.4,530.2,496.6,531.8,495.8z M528.2,486.2c1.9-0.1,3.7,2.3,2.8,3.8c-0.8,1.4-3.2,0.5-3.7-0.2S526.8,486.3,528.2,486.2z
			 M513.5,489.3c0.1-2,1.5-2.1,3.4-2.2c3.3-0.2,7,2.7,6.7,5.4c-0.3,2.6-5.3,2.4-7,1.7C514.9,493.4,513.3,491.3,513.5,489.3z
			 M510.8,478.9c2.2,0.2,3.4,1.7,2.8,2.7c-0.5,0.9-4.4,2.1-5.2,0.1C507.7,479.6,508.6,478.7,510.8,478.9z M495.5,481.8
			c0.5-0.7,2.9-1.6,4-1.5c3.7,0.3,7.8,5.7,7.5,7.3c-0.3,1.6-3.3,3.1-8.5,0.4C493.5,485.4,495,482.5,495.5,481.8z M496.1,470.9
			c3.2-0.3,2.9,2.7,2.8,3.2c-0.2,0.5-3.6,2.2-4.9,0.1C492.6,472,494.3,471,496.1,470.9z M485.1,488.8c0.1-1.1,0.5-1.4,1.5-1.5
			c2-0.3,2.6,1.9,1.5,2.9C487.1,491.3,485.1,489.9,485.1,488.8z M482.8,472.2c4.2-0.6,7.9,4.8,7.9,6.6c0,1.8-2.7,3.8-8.4,2.8
			C476.8,480.7,479.5,472.7,482.8,472.2z M478.2,462.8c3.2-0.4,4.9,2.4,4,4.3c-1,1.9-4.4,2.9-5,0.3
			C476.6,464.8,476.4,463.1,478.2,462.8z M142.9,513.5c-0.4,0.6-2.9,1.1-3.3,0c-0.4-1,0.5-2.8,1.1-3.7
			C142.1,510.8,143.3,512.9,142.9,513.5z M149.7,512.3c-0.6,0.8-2.8,1-3.2,0c-0.5-1,0.4-3.1,0.9-3.9
			C148.6,509.2,150.2,511.5,149.7,512.3z M157.3,511c-0.7,1.2-3.3,1.2-4,0.1c-0.7-1.2-0.1-4.5,0.2-5.5
			C155.2,506.6,158,509.8,157.3,511z M166.5,507.8c-0.2,1-3.1,2.4-4.7,1.2c-1.5-1.2-0.2-4.8,0.4-5.6
			C164.3,504.9,166.6,506.9,166.5,507.8z M175.7,503c-0.4,1-2.7,2.7-4.3,2.2c-1.6-0.5-1.8-6.8-1.5-7.8
			C172,498.5,176,501.9,175.7,503z M184.6,499.2c-1,1.1-3.4,1.3-4.6,0.8c-1.2-0.6-0.3-7.5-0.1-8.4
			C181.9,493.5,185.5,498.2,184.6,499.2z M193.5,494.9c-0.4,1.1-3.3,2.3-4.8,1.2c-1.5-1.1,0.5-7.7,0.9-8.5
			C192,490,193.9,493.8,193.5,494.9z M200.1,491.4c-3,1.2-2.2-7.2-1.9-8.6C200.8,484.6,204.2,489.7,200.1,491.4z M271.5,451
			c-1,0.8-4.4,0.4-4.6-0.9c-0.2-1.3,0.8-2.3,2.6-2.7C271.4,446.8,272.5,450.2,271.5,451z M281.4,457.8c0.7,2,0.1,6-5.7,6.2
			c-5.8,0.3-7.5-3.1-7.8-5.1c-0.3-2,3.1-4.3,5.4-4.5C276.8,454.1,280.7,455.7,281.4,457.8z M285.7,448.7c-1.8,2.9-5.1,1.7-5.8,0.5
			c-0.7-1.1,0.5-4.6,2.4-5C284.2,443.8,287.5,445.7,285.7,448.7z M293.2,499.3c-2.5,1.7-5.4,0.9-5.8-0.4c-0.3-1.2-0.2-4.1,1.1-4.9
			c1.3-0.8,2.1-1.5,3.8-1C294.4,493.5,295.7,497.5,293.2,499.3z M296.3,504.7c2.9-0.5,3,0.7,3.4,2.7c0.3,2-1.4,4.9-2.8,4.7
			c-1.4-0.2-3-2.7-3-4.4C293.8,506,295.4,504.8,296.3,504.7z M280.1,509.3c-0.3-1.6,2.1-4.8,3.8-5.1c2.7-0.5,6.1,3.6,6.1,5.1
			c0,1.6-2.7,2.4-5.5,2.6C281.7,512,280.4,511,280.1,509.3z M284.4,516.5c1.2-0.9,3.6-0.4,4.3-0.1c1.9,0.7,1.5,4.1,0.9,5.2
			c-0.5,1.2-3.6,2.4-5.2,0.1C282.9,519.5,283.3,517.4,284.4,516.5z M287.6,466.2c2.7-1,5.7,0.1,5.7,3c0,2.9-3.2,5.7-6.6,3.4
			C283.4,470.3,286.9,466.5,287.6,466.2z M299.7,452.2c1.6,2.3-0.6,6-3.8,7.7c-3.2,1.7-7,0.9-8-1.3c-1-2.3,0.8-7,3.4-8
			C293.8,449.7,298.9,451,299.7,452.2z M304,445c-2,2.9-6.2,1.9-6.7,0.1c-0.5-1.8,1.9-5.1,4-5.2C304.2,439.8,306,442.2,304,445z
			 M322.3,439.9c-1.3,3-7.7,2.3-8.1,0.5c-0.4-1.8,2.1-5.5,3.8-5.2c0.1,0,0.2,0,0.4,0C321.6,435.7,323.6,437,322.3,439.9z
			 M341.2,436.9c-0.3,2.4-7.9,2.6-9.2,0.8c-1.3-1.8,0.7-5.4,3.6-5.5C338.6,432.1,341.5,435.3,341.2,436.9z M354,436.3
			c-0.3,0.7-4.4,2.5-5.8,1.3c-1.4-1.2-1.3-2.5-0.6-3.6c0.6-1,2.4-1.4,3.9-1.5C354,432.2,354.3,435.5,354,436.3z M366.9,439.3
			c-1.1,1.1-5.8,1.6-6.6-1.2c-0.8-2.8,2.2-5.3,5.6-4.9C368.4,433.6,368,438.2,366.9,439.3z M374.1,442.7c-2.1,0-2-5.4,1.4-5.8
			C377.7,436.6,380,442.8,374.1,442.7z M380.6,449.9c0.3,3.2-3.3,5.9-6.5,5.7c-3.2-0.1-9.6-6.8-8-9.5
			C367.6,443.4,380.3,446.3,380.6,449.9z M388.2,441.2c-2.3,1.6-5.2,0.2-5.8-1.3c-0.6-1.5,1.8-5.3,6.6-5.2
			C393.4,434.7,390.4,439.6,388.2,441.2z M402.3,442.3c-1.6,1.6-4,0.5-4.3-0.6c-0.3-1.1,0.2-3.1,2-3.3
			C402.1,438.1,403.9,440.7,402.3,442.3z M412.9,440.8c-1.9,2.2-4.5,0.3-5.2-0.9c-0.7-1.3,1.1-5,3.7-4.8
			C414.2,435.3,414.8,438.6,412.9,440.8z M417,455.8c-0.7,3-9.4,3.5-11.4,1c-2.1-2.5-2.9-3.7-2-6c1.6-4.1,7.8-2.6,9.9-1.9
			C415.5,449.5,417.7,452.8,417,455.8z M404.7,486c1.1-0.6,3.1-0.2,4.2,1.1c1.1,1.3,1.4,4.5-1,5.8
			C405.6,494.2,402.5,487.2,404.7,486z M410.7,466.1c0.7-1.6,7-1.1,6.1,2.4C416,471.9,408.8,470.5,410.7,466.1z M433.3,443.2
			c-0.5,1.6-4.1,1.7-5.2,0.4c-1.1-1.4-1.3-3.8-0.5-4.4c0.8-0.6,1.9-1.2,3.2-1.3C433.2,437.7,433.7,441.7,433.3,443.2z M452.5,447.8
			c-0.1,1.4-1.8,2.9-3.6,2.4c-1.8-0.4-1.9-2.3-1.7-3.9c0.2-1.6,1.3-3.2,2.6-3.2C452.1,443.2,452.6,446.3,452.5,447.8z M470.5,456.8
			c-1.7,1.1-3,0.2-2.9-1.3c0.2-2.3,1.2-2.5,2.6-2.1C471.6,453.8,472.2,455.6,470.5,456.8z M471.3,479.6c2.6-0.8,4.2,2.1,3.1,4.4
			c-1.1,2.3-4.4,1.4-5.2,0.1C468.5,482.8,469.8,480,471.3,479.6z M461.8,463.7c3.6-3,8.6,1.3,9.7,2.4c1,1,3.2,5.4,1,7.5
			c-2.2,2.1-7.7,0.1-9.9-1.7C460.4,470.1,460.6,464.7,461.8,463.7z M458.3,459.5c-3,0.3-3.4-2.8-3.5-4c-0.1-1.2,0.9-2.9,2.1-3
			c2.8-0.1,4.4,1.3,4.7,3.2S461.3,459.2,458.3,459.5z M453.1,470.7c2.6-0.7,5.7,2.7,5,5c-0.6,2.3-4.7,1.7-6.1,0.8
			C450.7,475.5,449.4,471.7,453.1,470.7z M447.8,457.1c2.3,0.2,6.1,3.5,6,6c-0.1,2.5-3.8,3.7-6.4,4.2c-2.6,0.4-5.5-3.4-5.9-5.9
			C441,459,442.5,456.8,447.8,457.1z M436.5,449.8c1.2-2.3,4.3-1.6,5.2-0.6c1,0.9,0.3,3.1-1.3,4
			C438.8,454.2,435.4,451.8,436.5,449.8z M435.1,466.1c2.6-0.7,4.6,2.4,4.8,4c0.2,1.5-0.9,3.7-3.1,3.3c-2.1-0.5-3.4-1.4-3.8-2.8
			C432.5,469.1,433.4,466.5,435.1,466.1z M423.4,458c-2-3.9,0.8-6.6,4.8-6.9c4.4-0.2,5.4,2.5,6.4,3.6c2.2,2.6,1.5,5.9-1.8,7.4
			C429.4,463.6,425.3,461.9,423.4,458z M437.6,515.4c-1.4-0.5-1.3-1.7-1.2-2.4c0.3-2,4.7-1.3,4.5-0.1
			C440.6,514.1,438.9,515.9,437.6,515.4z M433.1,519.3c0.8-1.8,5,0.6,3.6,2.2C435.3,523.1,432,521.5,433.1,519.3z M425.8,514.6
			c-0.9-1.3-1.5-3-0.8-4.2c1.3-2.5,7.7,1.4,7.4,3.1C432.1,515.2,426.8,515.9,425.8,514.6z M423.5,520.1c-0.3-1.1,3.3-1.8,3.8-0.6
			C427.7,520.8,424.4,523.4,423.5,520.1z M424.1,468.6c1.2,0.5,1.9,2.1,2.1,3c0.2,1-1.7,2.1-3.1,0.8
			C421.7,471.2,421.5,467.5,424.1,468.6z M417.5,444.8c-0.4-1.8,1.2-3,2.9-3.1c2.6-0.1,3.6,3.2,2.1,4.8
			C421,448.1,417.8,446.6,417.5,444.8z M420.3,504.9c-2.7,0.4-2.3-3.6-0.6-4.1C421.9,500,422.9,504.4,420.3,504.9z M416.1,510.5
			c1.4-1,5.6-1.8,5.5,1.5c0,3.2-3.1,3.5-4.3,2.7C416.1,513.8,415.4,511,416.1,510.5z M414.5,494.2c-1.5-2.1-1-5.8,0.2-6.6
			c2.1-1.2,5.4,1.5,5.6,3.5C420.5,493.1,416,496.3,414.5,494.2z M410,504.4c-2-1.6-2.5-7-1.4-7.3c2.7-0.8,5.7,1.6,6.1,3.4
			C415,502.3,412,506,410,504.4z M409.3,507.4c1.2,0.3,2.6,3.3,2.4,5c-0.2,1.7-5.1,2-6,0.1C404.8,510.7,407,506.8,409.3,507.4z
			 M399.9,495.3c2-1.9,6.8,7.7,2.9,9.6C398.8,506.7,395.7,499.2,399.9,495.3z M398,464.2c2.3-0.7,4.4,0.9,4.6,3
			c0.3,2.1-2.7,3.4-4.2,2.3C397,468.4,395.9,464.8,398,464.2z M384.1,451.2c0.2-3.4,9.2-6.4,11.7-4.1c2.4,2.2,4,8.8-0.4,10.2
			C390.9,458.6,383.9,454.5,384.1,451.2z M384.8,474.9c1.1-1.8,5.2-0.4,5.5,1.1c0.3,1.4-2.1,4.9-4.6,3
			C383.3,477,384.4,475.5,384.8,474.9z M382.2,457.8c2.7-0.2,7.9,5.7,5.8,7.9c-2.1,2.2-8.3,0.5-9-0.7
			C378.4,463.8,378.6,458.1,382.2,457.8z M368.9,473.1c-0.5-1.1,0.8-3.3,1.9-3.8c2.3-1.1,5.2,2.4,3.1,4.7
			C371.7,476.3,369.4,474.2,368.9,473.1z M367.8,482c2-0.8,3.5,3.1,1.2,3.7C366.6,486.3,365.9,482.7,367.8,482z M357.2,457.2
			c0.9-2,4.8-2.3,6.2-1.8c1.4,0.5,4.1,2.3,4.1,4.3c0,2.6-4.7,3.6-7.4,3.1C357.2,462.3,356.2,459.1,357.2,457.2z M352.3,451
			c-3.7-0.5-7.5-4.4-6.5-7.1c0.9-2.7,7.2-2.9,9.8-2.3c2.6,0.6,5.9,4.9,6.1,6.6C362,451.5,356,451.5,352.3,451z M352.1,465.6
			c3.1-0.6,4.7,5.6,0.1,6.4C347.6,472.9,348.6,466.3,352.1,465.6z M347.9,480.3c1.8-0.5,2.4,2.7,0,3
			C345.6,483.7,346.4,480.7,347.9,480.3z M340,456.8c0.6-2,2.9-2.3,4.7-2.2c2.5,0.1,3.6,3.3,3.3,4.8c-0.2,1.5-3.7,3-5.3,2.7
			C341.1,461.7,339.4,458.7,340,456.8z M335.6,468.6c1.5-1,2.8-0.1,3.3,1.1c0.8,2.1-3.1,3.9-4.2,2.6
			C333.5,470.9,334.2,469.6,335.6,468.6z M333.5,453.5c-4.6-0.3-6.4-2.3-7.5-4.8c-1.1-2.5,1.1-6.3,2.4-6.6
			c1.4-0.3,11.3,0.7,12.8,3.7C342.3,448.2,338.1,453.8,333.5,453.5z M327.6,481c2.1-0.1,2.5,3.5,0.6,3.8
			C326.4,485.1,325.4,481.1,327.6,481z M320.6,460.4c-0.3-1.7,0.9-3.6,1.8-3.9c3.3-1.2,7.4-0.5,7.8,1.8c0.4,2.3-1.7,4.5-4.5,4.9
			C323,463.7,320.8,462.1,320.6,460.4z M317.7,472c1.8-0.7,3.5,1.9,2.1,3.8c-1.5,1.9-3.2,0.6-3.5-1C316,473.2,316.6,472.4,317.7,472
			z M306.3,452.4c-0.7-2.4,0.8-6.2,3.4-6.8c3.2-0.7,10.2,0.3,10.6,2.2c0.4,1.9-1.8,7-6,7.7C310.2,456.3,307,454.8,306.3,452.4z
			 M307.8,467.2c-4,0.4-5.4-3-5.6-4.7c-0.3-1.6,0-3.1,1.8-3.8c3-1.2,6.8,0.8,7.4,2.3C312,462.6,311.7,466.9,307.8,467.2z
			 M303.4,474.4c1.7-0.4,3,3.1,0.8,3.9C302.1,479.1,300.2,475.1,303.4,474.4z M306.8,508.2c-0.9,0.7-3.4-1-3.4-1.8
			c0-0.8,0.8-1.8,1.7-1.9C307.6,504,307.8,507.5,306.8,508.2z M303.5,515.2c0.1-0.9,1.6-2.1,1.9-2.5c0.9-1,2.6,4,1.6,4.9
			C306.1,518.6,303.4,516.1,303.5,515.2z M304.9,522.8c1.7-0.5,2.4,2.8,0.7,3.7C303.9,527.4,301.5,523.8,304.9,522.8z M302.1,499.6
			c-1.9,1.2-3.9-0.4-3.8-1.6c0.1-1.2,1-4.5,1.8-4.1C302.4,495,304,498.4,302.1,499.6z M301.7,530.1c1.7,0.4-0.5,3.1-1.5,2.9
			C299.2,532.8,299.5,529.6,301.7,530.1z M293.6,523.7c-0.6-1.2,0.6-6.7,1.8-7.2c0.9-0.5,5.4,2.6,4.5,4.8
			C299.1,523.4,294.2,524.9,293.6,523.7z M289.9,531.7c-1-1.4,0.4-3.5,1.4-4c2.7-1.2,4.6,1.7,3.7,3.1
			C294.1,532.1,290.9,533.1,289.9,531.7z M287.8,534.7c2.4,0.5,3.6,1.4,3.7,1.8c0.1,0.5-5.6,2.1-6,0.5
			C285,535.4,287,534.5,287.8,534.7z M258.4,537.3c-4.9,0.8-3.4-1.5-3.2-1.6c0.2-0.1,4.3-3.2,8-3
			C265.3,532.9,263.3,536.5,258.4,537.3z M268.8,537.3c2-0.5,0.1,3.6-2.6,5C263.4,543.6,264,538.6,268.8,537.3z M272.7,533.4
			c-1.8,0.6-5,1.6-5.7,0.1c-0.6-1.5,3.6-5.4,6.2-4.4C274.5,529.6,274.5,532.8,272.7,533.4z M278.2,535.5c2.6-0.3,2.2,3.4-0.2,3.5
			c-2.4,0.1-3.7-1.1-3.7-1.7C274.3,536.8,275.8,535.8,278.2,535.5z M282.9,525.9c3.1,0.8,2.8,3.6,1.6,4.8c-1.1,1.2-5.3,2.3-6.4,0.6
			C277,529.6,279.4,525,282.9,525.9z M281.2,494.8c1.7-0.2,2.2,3.6,1.4,5c-0.8,1.4-4,2.1-4.7,0.6C277.1,499,278.5,495.1,281.2,494.8
			z M276.9,476.8c2.3-1,4,1.3,4.1,2.5c0.1,1.2-0.5,1.9-2.8,2.6c-2.3,0.7-2.8,0-3.1-1.9C274.7,478.2,275.7,477.4,276.9,476.8z
			 M262.3,470.4c-0.2-1.9,0.9-3.4,2.7-3.7c2.9-0.6,5.9,2,5.3,4.6s-2.7,3.8-4.9,3.7C263.3,474.8,262.5,472.3,262.3,470.4z
			 M259.5,455.6c-3.6-0.5-6.3-1.3-6.1-2.5c0.1-1.2,1.7-2.1,3.9-2.7c2.8-0.7,7,0.9,6.7,2.5C263.6,454.5,263.1,456.1,259.5,455.6z
			 M256.1,474.6c1.5-0.2,3.1,1.9,2.7,3.3c-0.4,1.4-3.8,2.8-4.5,0.6C253.6,476.5,254.1,474.9,256.1,474.6z M248.1,459.6
			c0.2-2.3,2.6-2.2,5.7-1.8c4.8,0.5,5.1,1.5,5.2,3.8c0.2,2.2-2.6,2.9-5.5,3.1C250.5,464.8,247.9,462,248.1,459.6z M241.2,463.8
			c2.3-1.9,5.3,1,6.5,2.8c1.2,1.8,1.4,4.9-1.3,5.8c-2.7,0.9-5.5-0.8-6.1-3.5C239.6,466.1,240.1,464.7,241.2,463.8z M239.8,458.4
			c-1.9-0.8-7.5-3.3-8.2-4.3c-0.7-1-1.9-3.7,0.4-5c2.3-1.3,6.2-0.4,9.3,3c1.2,1.3,4.1,4,3.2,5.4C243.7,459,241.7,459.1,239.8,458.4z
			 M227.1,463.8c-1.8-0.9-2.9-3.3-1.7-4.5c1.2-1.3,6.5-0.9,8.7,1.9C237.9,466.1,228.9,464.6,227.1,463.8z M220.1,469.7
			c1-1,3.5-1.5,4.8-1.3c3.9,0.5,3.8,4.1,2.7,5.7c-1.1,1.6-4.6,3.2-7.4,1.9C217.3,474.8,219.1,470.7,220.1,469.7z M213.9,476.8
			c3.1-0.1,4.8,1.2,4.8,3.1c0,1.9-2.3,3.9-4.8,3.2C211.5,482.4,210.8,476.9,213.9,476.8z M209,484.5c1.6,0.6,2.4,3.2,0.1,3.8
			C206.4,487.4,205.9,484.8,209,484.5z M181.5,447.6c1.3-2.2,6.3-2.1,10.2-2c-0.2-3.4,1-4.3,3.7-4.1c2.8,0.2,2.7,2.3,1.1,5.7
			c10.9-3.1,20.3-3.3,25.3-1.1c5,2.2,5.3,6.2,2.8,7.9c-5.2-3.6-7.2-7.4-22.4-3.6c0.5,1.3,4,4.2,6.7,5.8c0,0,2-2.9,3.3-3.7
			c0,0,1,4,0.8,6.1c0,0,1.2,0.8,4.8,1.9c-11.4,4.8-21.7-0.5-26.6-8.4c-2.8,2.8-5.9,2.6-7.8,1.9C181.6,453.2,180.2,449.8,181.5,447.6
			z M166.6,449.7c0-1.6,1.5-2.1,4.6-2.3c4.2-0.3,6.2,1.5,6.1,3.8s-0.8,3.3-5.7,3.2C166.8,454.2,166.6,451.2,166.6,449.7z M153.9,448
			c0.1-0.9,0.8-2,3.9-1.9c4.4,0.1,5.2,2.8,5.2,3.8c0,1-0.6,3-5.1,2.2C153.4,451.2,153.9,448.9,153.9,448z M131.4,439.9
			c0.8-3.1,3.2-2.6,4.2-2.4c1,0.2,5.5,3.6,6.4,4.4c2-0.4,4.5,0.5,5.6,0.7c2.6,0.6,3.2,3,3,4.6c-0.2,1.6-3.1,2.6-5,1.8
			s-3.6-3.7-3.9-4.7c-1.4,1.3-5,2.3-7.2,1.8C132.3,445.6,130.6,443,131.4,439.9z"/>
	</g>
</g>
<path class="st0" d="M244.1,449.3c0,0,29.7,29.9,8.4,66l19.2,4.9c0,0,11.8-45,37.5-1.1c0,0,40.5,24,78.6,0.7c0,0,15.1-53.1-13-91
	C374.7,428.8,307.9,412.2,244.1,449.3z"/>
<path class="st5" d="M334.3,456.6c0.5,2.1,0.9,4.2,1.4,6.3c0,0.2-0.2,0.5-0.3,0.6c-3.3,2.9-6.6,5.8-9.9,8.7
	c-0.2,0.2-0.4,0.4-0.6,0.7l6.1-1.4l-0.5-2.1l6.4-1.4c0.1,0.2,0.1,0.5,0.2,0.7c0.6,2.9,1.3,5.8,1.9,8.7c0.1,0.6,0,0.8-0.6,0.9
	c-1.8,0.4-3.5,0.8-5.2,1.2c-0.2,0-0.4,0.1-0.7,0.1c-0.1-0.4-0.2-0.9-0.3-1.3c-0.1-0.4-0.2-0.5-0.6-0.4c-3.7,0.8-7.3,1.6-11,2.4
	c-0.3,0.1-0.4,0.2-0.4,0.6c0.1,0.4,0.2,0.8,0.3,1.3l-6.7,1.5c-0.1-0.2-0.1-0.4-0.2-0.6c-0.6-2.7-1.2-5.3-1.8-7.9
	c-0.1-0.4,0-0.7,0.3-0.9c3-2.5,6-5.1,9-7.7c0.2-0.2,0.4-0.3,0.5-0.6c-0.2,0.1-0.5,0.1-0.7,0.2c-1.2,0.3-2.4,0.6-3.6,0.8
	c-0.4,0.1-0.6,0.2-0.5,0.7c0.1,0.4,0.2,0.7,0.3,1.2l-6.3,1.4l-2.2-9.7l6.7-1.5c0.1,0.3,0.2,0.6,0.2,0.9c0.1,0.6,0.3,0.7,0.9,0.6
	c5.6-1.3,11.2-2.5,16.8-3.8C333.6,456.8,334,456.7,334.3,456.6 M317.9,476.3c0.2-0.2,0.3-0.4,0.5-0.5c4.4-3.9,8.8-7.9,13.3-11.8
	c1.3-1.1,2-2.2,1.2-3.9c0-0.1,0-0.1,0-0.2c0-0.6-0.4-0.7-0.9-0.6c-5.6,1.3-11.2,2.5-16.8,3.8l-0.9,0.2c-0.2-0.6-0.3-1.4-0.6-1.5
	c-0.4-0.2-1.1,0.1-1.6,0.2c0,0-0.1,0-0.1,0c-0.5,0-0.6,0.3-0.5,0.8c0.3,1.2,0.5,2.4,0.8,3.6c0.3,1.4,0.3,1.4,1.7,1.1
	c1.2-0.3,1.1-0.1,0.9-1.3c0-0.1,0-0.3-0.1-0.5l14-3.1c-0.5,0.5-0.9,0.8-1.3,1.1c-4.3,3.8-8.5,7.6-12.8,11.4
	c-0.2,0.2-0.4,0.5-0.4,0.7c0.3,1.6,0.7,3.2,1.1,4.8c0,0.1,0.3,0.3,0.5,0.3c0.6-0.1,1.1-0.2,1.7-0.4c0.2-0.1,0.4-0.4,0.3-0.6
	c0-0.4-0.2-0.8-0.3-1.2l16.1-3.6c0.1,0.4,0.2,0.7,0.2,1.1c0,0.5,0.3,0.6,0.8,0.5c0.4-0.1,0.8-0.2,1.3-0.3c0.5-0.1,0.6-0.3,0.5-0.7
	c-0.3-1.1-0.5-2.3-0.8-3.4c-0.4-2-0.4-2-2.4-1.4c-0.4,0.1-0.5,0.2-0.4,0.6c0.1,0.4,0.2,0.8,0.3,1.2L317.9,476.3z"/>
<path class="st5" d="M312,445.3c-0.3,0.2-0.4,0.4-0.6,0.4c-1.8,0.4-3.5,0.8-5.3,1.2c-0.1,0-0.2,0-0.4,0l-2.4-10.8l6.7-1.5
	c0.2,0.8,0.3,1.6,0.6,2.4c0.1,0.3,0.3,0.6,0.5,0.7c1.1,0.7,2.2,1.3,3.4,2c0.4,0.2,0.6,0.2,1,0c2.2-1.7,4.4-3.3,6.6-4.9
	c0.4-0.3,0.6-0.6,0.4-1.1c-0.2-0.6-0.3-1.1-0.4-1.8l6.6-1.5l2.4,10.8l-6.3,1.4l-0.3-1.5c-1.1,0.8-2.1,1.5-3,2.2
	c1,0.7,1.9,1.4,2.9,1.9c0.2,0.1,0.6,0,1-0.1c-0.1-0.5-0.2-0.9-0.3-1.5c0.4-0.1,0.8-0.2,1.2-0.3c1.5-0.3,3-0.7,4.5-1
	c0.3-0.1,0.6-0.2,0.7,0.3c0.7,3.2,1.4,6.5,2.1,9.7c0,0.1,0,0.1,0,0.2l-6.6,1.5c-0.1-0.4-0.2-0.8-0.3-1.2c-0.1-0.4-0.2-0.6-0.7-0.5
	c-3.6,0.8-7.2,1.6-10.8,2.4c-0.5,0.1-0.6,0.3-0.5,0.8c0.1,0.4,0.2,0.7,0.3,1.1l-6.7,1.5l-2.3-10.3l6-1.3c0.4,1,0.4,1,1.5,0.8
	c0.5-0.1,1-0.2,1.5-0.3c0,0,0.1,0,0.2-0.2C314.1,446.5,313,445.9,312,445.3 M324.5,433.7c0.1,0.4,0.2,0.8,0.2,1.1
	c0,0.2-0.1,0.6-0.3,0.7c-3,2.3-6,4.5-9,6.7c-0.3,0.2-0.5,0.2-0.8,0c-1.6-0.9-3.2-1.9-4.9-2.8c-0.7-0.4-1.2-0.8-1.3-1.6
	c0-0.4-0.2-0.5-0.6-0.4c-0.5,0.1-1,0.2-1.5,0.3c-0.3,0.1-0.4,0.2-0.4,0.6c0.4,1.9,0.8,3.7,1.3,5.6c0,0.2,0.3,0.4,0.4,0.4
	c0.7-0.1,1.4-0.3,2.2-0.5l-0.5-2.1c3.8,2.2,7.6,4.3,11.4,6.5l-9.4,2.1c-0.3-1.1-0.3-1.1-1.4-0.8c-0.3,0.1-0.6,0.1-0.9,0.2
	c-0.4,0.1-0.6,0.3-0.4,0.7c0.3,1.2,0.5,2.4,0.8,3.6c0.4,2,0.4,2,2.4,1.5c0,0,0,0,0.1,0c0.4,0,0.5-0.3,0.4-0.6
	c-0.1-0.4-0.2-0.8-0.3-1.2L328,450c0.2,0.6,0.3,1.4,0.6,1.5c0.4,0.2,1.1-0.2,1.7-0.2c0.5-0.1,0.6-0.3,0.5-0.7
	c-0.3-1.4-0.6-2.7-0.9-4.1c-0.3-1.4-0.3-1.4-1.7-1c-1,0.2-1,0.2-0.9,1.2c0,0,0,0.1-0.1,0.2c-0.3,0.1-0.7,0.1-1,0.2
	c-1.5,0.6-2.9,0.5-4.3-0.5c-1.4-1-2.9-1.7-4.5-2.5c2.7-2,5.3-3.9,8-5.9l0.5,2.1c0.7-0.2,1.4-0.3,2-0.5c0.1,0,0.3-0.4,0.3-0.5
	c-0.4-1.9-0.8-3.8-1.3-5.6c0-0.1-0.3-0.3-0.5-0.3C325.9,433.4,325.2,433.6,324.5,433.7"/>
<path class="st5" d="M321.7,519.3c-0.1-0.2-0.1-0.4-0.2-0.7c-1-4.7-2.1-9.4-3.1-14.1c-0.1-0.5-0.1-0.8,0.2-1.2c1-1.4,2-2.9,3-4.4
	c0.2-0.3,0.5-0.5,0.9-0.6c2.4-0.6,4.8-1.1,7.2-1.6c0.3-0.1,0.6,0,0.9,0.1c1.5,0.9,3.1,1.8,4.6,2.8c0.3,0.2,0.5,0.5,0.6,0.8
	c0.4,1.7,0.8,3.4,1.2,5.2c0.1,0.5,0.3,0.6,0.8,0.5c0.5-0.1,0.8-0.2,0.6-0.8c-0.1-0.4-0.2-0.8-0.3-1.3l6.6-1.5l2.4,11l-6.6,1.5
	c-0.1-0.4-0.2-0.8-0.3-1.2c-0.1-0.3-0.2-0.4-0.6-0.4c-3.7,0.8-7.3,1.6-11,2.4c-0.4,0.1-0.5,0.3-0.4,0.6c0.1,0.4,0.2,0.7,0.3,1.2
	L321.7,519.3z M344.5,512.1c-0.4-1.7-0.7-3.3-1.1-4.9c-0.4-2-0.4-2-2.4-1.3c-0.2,0.1-0.4,0.4-0.3,0.6c0,0.4,0.2,0.9,0.3,1.3
	l-5.6,1.2c-0.1-0.3-0.1-0.6-0.2-0.9c-0.4-1.9-0.8-3.9-1.3-5.8c-0.1-0.4-0.3-0.7-0.6-0.9c-0.9-0.7-1.9-1.3-2.9-1.8
	c-0.3-0.2-0.6-0.2-0.9-0.2c-1.9,0.4-3.8,0.8-5.7,1.3c-0.3,0.1-0.5,0.2-0.7,0.5c-0.7,1-1.3,2-2,2.9c-0.3,0.4-0.3,0.8-0.2,1.3
	c0.8,3.6,1.6,7.2,2.4,10.9c0,0.1,0,0.3,0.1,0.4c0.1,0.1,0.3,0.3,0.4,0.3c0.7-0.1,1.4-0.3,2.2-0.5l-0.4-1.7l16.1-3.6
	c0.1,0.4,0.2,0.8,0.3,1.2c0.1,0.4,0.2,0.6,0.6,0.4C343.1,512.3,343.8,512.2,344.5,512.1"/>
<path class="st5" d="M335.5,493c-0.1-0.3-0.1-0.5-0.2-0.7c-0.2-1.1-0.1-1.1-1.2-0.8c-3.4,0.8-6.8,1.5-10.2,2.3
	c-0.6,0.1-0.8,0.3-0.6,0.9c0.1,0.3,0.2,0.7,0.2,1l-6.7,1.5l-2.4-10.9l6.7-1.5c0.1,0.4,0.2,0.8,0.3,1.2c0.1,0.4,0.2,0.5,0.6,0.4
	c3.6-0.8,7.3-1.6,10.9-2.4c0.4-0.1,0.5-0.3,0.4-0.7c-0.1-0.3-0.2-0.7-0.2-1.1c0.2-0.1,0.3-0.2,0.5-0.2c1.9-0.4,3.7-0.8,5.6-1.2
	c0.4-0.1,0.6-0.1,0.7,0.4c0.7,3.4,1.5,6.8,2.2,10.1c0,0.1,0,0.2,0,0.3L335.5,493z M320,489c-0.3-0.6-0.4-1.4-0.7-1.5
	c-0.4-0.2-1.1,0.2-1.7,0.3c-0.5,0.1-0.6,0.3-0.5,0.7c0.4,1.5,0.7,3,1,4.5c0.3,1.5,0.3,1.5,1.9,1.2c1.1-0.3,1-0.1,0.8-1.2
	c0-0.2-0.1-0.5-0.1-0.7l16-3.6c0.2,0.6,0.3,1.4,0.7,1.5c0.4,0.2,1.1-0.2,1.7-0.3c0,0,0,0,0.1,0c0.4,0,0.4-0.2,0.4-0.6
	c-0.4-1.9-0.8-3.8-1.3-5.7c-0.1-0.3-0.2-0.5-0.6-0.4c-0.5,0.1-1.1,0.2-1.6,0.4c-0.2,0.1-0.3,0.3-0.3,0.5c0,0.4,0.2,0.8,0.3,1.3
	L320,489z"/>
<path class="st5" d="M332.9,509.5l-8.1,1.8c-0.2-1-0.4-2-0.7-3c-0.2-0.7-0.3-1.4-0.5-2.1c-0.1-0.5-0.2-1,0.1-1.5
	c0.5-0.9,1.1-1.3,2.1-1.4c1.2-0.2,2.4-0.5,3.6-0.8c0.5-0.1,2,0.6,2.1,1.2C332.1,505.5,332.5,507.5,332.9,509.5 M328.3,508.2
	L328.3,508.2c0.5-0.1,1-0.2,1.5-0.4c0.2-0.1,0.4-0.3,0.3-0.5c-0.1-0.7-0.3-1.5-0.5-2.2c0-0.2-0.4-0.4-0.5-0.3c-1,0.2-2,0.4-3,0.7
	c-0.1,0-0.3,0.3-0.3,0.5c0.1,0.7,0.3,1.5,0.5,2.2c0.1,0.3,0.2,0.4,0.6,0.4C327.3,508.4,327.8,508.3,328.3,508.2"/>
</svg>
