<?xml version="1.0" encoding="utf-8"?>
<!-- Generator: Adobe Illustrator 22.0.0, SVG Export Plug-In . SVG Version: 6.00 Build 0)  -->
<svg version="1.1" id="Capa_1" xmlns="http://www.w3.org/2000/svg" xmlns:xlink="http://www.w3.org/1999/xlink" x="0px" y="0px"
	 viewBox="0 0 2000 2000" style="enable-background:new 0 0 2000 2000;" xml:space="preserve">
<style type="text/css">
	.st0{fill-rule:evenodd;clip-rule:evenodd;fill:#006B54;}
	.st1{fill:#006B54;}
	.st2{fill:#006B54;stroke:#006B54;stroke-width:6;stroke-miterlimit:10;}
	.st3{fill:#006B54;stroke:#006B54;stroke-width:4;stroke-miterlimit:10;}
	.st4{fill:#FFFFFF;}
</style>
<g>
	<g>
		<g>
			<path class="st0" d="M932.7,1290.4l-0.7,4.2c-0.6,3.7-0.7,8.1-1,12.1c-9.2,66.4-43,90-73.9,140.8c-10.8,20.1-16.3,42.7-16.3,65.8
				c0,72.7,54.5,131.6,121.7,131.6c66.2,0,120.3-57.2,121.7-128.7c0.1-3.9-0.7-6.9-2.3-10.3c-4.7-9.8-14-16-24.3-16
				c-8.9,0-17.7,4.5-22.5,12.8c-2.3,4-2.8,5.9-2.8,10.6c0,80.2-111.3,106.3-136.5,22.6c-2.1-7.5-3.2-14.8-3.2-22.6
				c0-33.3,30.1-76,48.8-101.2c14.4-19.5,25.4-37.5,33.9-60.8c6.2-17,11.1-30.1,12.7-48.5c0.3-2.9,0.4-6,0.8-8.9l0.4-3.1"/>
			<g>
				<g>
					<path class="st1" d="M958.5,1276c-136.6,0-331.7-27.8-360.6-37.1c-18.1-48.9-22.4-112.4-22.4-112.4
						c-172.1-35.9-348.3-122.6-362.8-130.3c141.4,97.8,319.2,144.2,337.8,147.6c5,52.2,14.9,102,21.1,118.2
						c76.9,23.2,280.3,45.2,386.9,45.2C964.3,1297.5,963.4,1285.3,958.5,1276z"/>
				</g>
				<g>
					<path class="st1" d="M947.2,1276c136.6,0,331.7-27.8,360.6-37.1c18.1-48.9,22.4-112.4,22.4-112.4
						c172.1-35.9,348.3-122.6,362.8-130.3c-141.4,97.8-319.2,144.2-337.8,147.6c-5,52.2-14.9,102-21.1,118.2
						c-76.9,23.2-280.3,45.2-386.9,45.2C941.4,1297.5,942.3,1285.3,947.2,1276z"/>
				</g>
			</g>
		</g>
		<g>
			<g>
				<path class="st1" d="M1387.7,921.1c52.8-14.5,101.8-31.5,146.6-50.6c8,2.4,16.1,4.8,24.1,7.2c-46.6,25.3-100,47.6-158.7,66.4
					L1387.7,921.1z"/>
			</g>
			<g>
				<path class="st1" d="M293.8,841.8l13.2-4.6c51.5,27.7,111,52.3,177.2,72.7c-4.8,6.4-9.1,13.4-12.7,20.7
					C403,905.8,342.9,875.7,293.8,841.8z"/>
			</g>
			<g>
				<path class="st1" d="M726,961.7c72.9,9.6,149.7,14.8,229.1,14.8c85.9,0,168.6-6.2,246.8-17.3v30.7
					c-77.7,12-160.5,18.6-246.5,18.6c-96.9,0-189.8-8.3-275.9-23.4C690.8,971.7,707.7,965.8,726,961.7z"/>
			</g>
		</g>
		<g>
			<path class="st2" d="M515.8,1087.3l-38-14.5l0.5-1.4c3.5,1,6.1,1.3,7.8,0.9c2.9-0.7,4.8-2.5,5.8-5.4c0.6-1.7,0.8-4.2,0.6-7.5
				l-0.1-3l-0.7-16.9l-25.4-9.7l-5.8,7.5l-2.7,3.3c-3.2,3.9-5.3,7.2-6.1,9.8c-0.5,1.5-0.7,3.1-0.5,4.7c0.2,1.6,0.7,3,1.5,4.2
				c1.1,1.7,2.8,3.1,5.1,4.2l-0.5,1.4l-25.9-9.9l0.5-1.4c2.1,0.7,4.1,0.8,5.9,0.4c1.9-0.4,3.9-1.3,6-2.9c1.8-1.2,3.7-3,5.8-5.2
				c2.1-2.2,4.9-5.7,8.6-10.3l40.4-50.9l3.3,1.3l3.7,75.3c0.3,5.7,0.6,9.8,1,12.3c0.4,2.5,1.1,4.6,2.1,6.2c0.7,1.1,1.6,2.1,2.6,2.9
				c1.1,0.9,2.7,1.9,5,3.1L515.8,1087.3z M491.6,1036.6l-1.6-37l-22,28L491.6,1036.6z"/>
			<path class="st2" d="M542.2,1095.5l0.4-1.5c4,1.1,7.4,0.8,10.1-1c1.6-1,2.8-2.5,3.8-4.5c1-2,2-5.2,3-9.5l11.4-47.2
				c1.1-4.5,1.7-7.9,1.7-10.2c0-2.3-0.5-4.3-1.5-6.1c-0.8-1.4-1.9-2.6-3.1-3.5c-1.2-0.9-2.9-1.7-5-2.4l0.4-1.5l37.9,10.7l-0.4,1.5
				c-2.2-0.5-4.1-0.7-5.6-0.5c-1.5,0.1-2.9,0.6-4.3,1.4c-1.7,1-3,2.5-4,4.5c-1,2-2,5.2-3.1,9.7l-9,37c-1.4,5.7-2.3,10-2.7,12.8
				c-0.4,2.9-0.4,5.3,0,7.2c0.6,3.5,2.1,6.3,4.5,8.5c2.4,2.2,5.8,3.9,10.3,5.2c4.7,1.3,8.8,1.8,12.4,1.3c3.5-0.4,6.7-1.8,9.4-4
				c1.8-1.5,3.5-3.4,5-5.6c1.5-2.2,3.1-5.2,4.8-8.9l1.4,0.5l-7.1,26.1L542.2,1095.5z"/>
			<path class="st2" d="M640.8,1122.1l0.3-1.6c4.1,0.8,7.4,0.2,10-1.8c1.5-1.1,2.6-2.7,3.5-4.8c0.8-2.1,1.6-5.3,2.4-9.7l8.2-48
				c0.8-4.6,1.1-8.1,1-10.3c-0.1-2.3-0.8-4.3-1.9-5.9c-0.9-1.4-2-2.4-3.3-3.2c-1.3-0.8-3-1.5-5.2-2l0.3-1.5l38.5,7.7l-0.3,1.5
				c-2.2-0.3-4.1-0.4-5.6-0.1c-1.5,0.2-2.9,0.8-4.2,1.7c-1.6,1.2-2.8,2.8-3.7,4.9c-0.9,2.1-1.7,5.4-2.5,10l-6.5,37.6
				c-1,5.8-1.6,10.1-1.8,13c-0.2,2.9-0.1,5.3,0.4,7.2c0.9,3.4,2.6,6.1,5.1,8.1c2.5,2,6.1,3.5,10.7,4.4c4.8,1,8.9,1.1,12.4,0.4
				c3.5-0.7,6.6-2.3,9.1-4.7c1.7-1.7,3.3-3.7,4.6-5.9c1.3-2.3,2.7-5.4,4.2-9.3l1.4,0.4l-5.4,26.6L640.8,1122.1z"/>
			<path class="st2" d="M789.5,1056l-0.2,1.5c-2.3-0.2-4.2-0.1-5.7,0.3c-1.5,0.4-2.9,1.1-4.2,2.2c-1.8,1.5-3,3.8-3.8,6.9
				c-0.5,2.3-0.9,5-1.3,8l-5.5,48.5c-0.4,3.6-0.6,6.5-0.5,8.7c0.1,2.1,0.4,3.9,1,5.3c0.9,1.9,2.1,3.4,3.6,4.5
				c1.6,1.1,3.7,1.9,6.5,2.4l-0.2,1.5l-38.9-5.2l0.2-1.5c2.4,0.2,4.3,0.1,5.8-0.3c1.5-0.4,2.9-1.1,4.1-2.2c1.5-1.2,2.5-2.9,3.2-5
				c0.7-2.1,1.3-5.4,1.8-9.9l5.5-48.5c0.5-4.5,0.7-7.9,0.5-10.1c-0.2-2.2-0.9-4.1-2-5.7c-1-1.4-2.1-2.5-3.5-3.3
				c-1.4-0.8-3.2-1.4-5.5-1.8l0.2-1.5L789.5,1056z"/>
			<path class="st2" d="M891.1,1063.8l-0.7,28.8l-1.4,0c-2.3-10-5.6-17.5-9.7-22.5c-4.2-5-9.4-7.7-15.6-8.1
				c-4.9-0.3-9.1,0.5-12.7,2.5c-3.6,1.9-7,5.2-10.3,9.9c-6.6,9.5-10.2,20.6-10.9,33.2c-0.3,6,0.1,11.8,1.4,17.2
				c1.2,5.4,3.1,10.3,5.7,14.6c5.1,8.3,11.5,12.6,19.4,13.1c3.1,0.2,6.1-0.4,8.9-1.6c2.8-1.3,5.1-3.1,7-5.4c2.6-3.3,4-7.3,4.2-12
				c0.2-4.4-0.7-7.6-2.8-9.7c-2.1-2.1-5.6-3.3-10.7-3.5l0.1-1.5l39,2.3l-0.1,1.5c-3.6,0.1-6.2,0.5-7.6,1.2c-1.5,0.6-2.6,1.8-3.4,3.6
				c-0.9,1.9-1.5,5.7-1.7,11.5c-0.1,1.6-0.1,4.1-0.1,7.4l0,1.5c-1.5-0.7-2.6-1.1-3.4-1.1c-0.9-0.1-2.1,0.4-3.5,1.3
				c-3.7,2.4-7.9,4.2-12.7,5.4c-4.8,1.1-9.8,1.6-15,1.3c-7.2-0.4-13.6-2.1-19.2-5.1c-5.6-3-10.1-7.1-13.5-12.2
				c-2.5-3.9-4.4-8.4-5.6-13.6c-1.2-5.2-1.6-10.7-1.4-16.4c0.4-7.9,2.1-15.2,5-21.8c3-6.6,6.9-12,11.9-16.2
				c4.1-3.3,8.7-5.8,13.8-7.5c5.2-1.6,10.6-2.3,16.2-2c3.3,0.2,6.3,0.7,9,1.5c2.8,0.8,5.7,2.1,8.7,3.8l3.5,2
				c0.9,0.4,1.7,0.7,2.4,0.7c1.6,0.1,2.9-1.3,3.9-4.1L891.1,1063.8z"/>
			<path class="st2" d="M1015.4,1151.9l-40.2,1.5l0-1.5c3.6-0.5,6.1-1.2,7.5-2.3c2.5-1.8,3.7-4.2,3.6-7.3c-0.1-1.8-0.7-4.2-1.9-7.2
				l-1.1-2.7l-6.4-15.4l-27,1l-2.9,9.3l-1.4,4.2c-1.7,4.9-2.5,8.8-2.4,11.6c0,1.6,0.4,3.1,1.1,4.5c0.7,1.4,1.7,2.5,2.8,3.3
				c1.6,1.1,3.7,1.8,6.2,1.9l0,1.5l-27.4,1l0-1.5c2.2-0.2,4-0.9,5.6-1.9c1.6-1.1,3.1-2.8,4.6-5.1c1.2-1.9,2.5-4.2,3.6-7.1
				c1.2-2.9,2.7-7.2,4.5-13l20.5-63.3l3.5-0.1l28.8,68.6c2.2,5.2,3.9,8.9,5.1,11.1c1.3,2.2,2.6,3.9,4,5c1,0.8,2.1,1.3,3.4,1.7
				c1.3,0.4,3.2,0.7,5.7,0.9L1015.4,1151.9z M975.8,1114.2l-13.9-33.8l-11.1,34.7L975.8,1114.2z"/>
			<path class="st2" d="M1066.1,1057.4c-2.6,0.3-5.3,0.8-8.2,1.3c-6.2,1.2-10.8,2.6-13.7,4.4c-2.9,1.8-5.2,4.4-6.8,8
				c-1.5,3.3-2.4,7.7-2.8,13l-1.4,0.1l-1.6-24.4l82.3-10.7l3.8,24.1l-1.4,0.3c-1.8-6-4-10.3-6.7-13.2c-2.7-2.8-6.3-4.6-10.9-5.4
				c-3.9-0.7-10.4-0.5-19.4,0.7l7.5,67.1c0.5,4.5,1.1,7.8,1.8,9.9c0.7,2.1,1.8,3.8,3.2,5c1.3,1.1,2.7,1.9,4.2,2.3
				c1.5,0.4,3.4,0.5,5.7,0.3l0.2,1.5l-38.9,5.1l-0.2-1.5c2.3-0.4,4.2-1,5.6-1.8c1.4-0.8,2.6-1.8,3.6-3.3c1.1-1.6,1.8-3.5,2-5.7
				c0.2-2.2,0.1-5.6-0.4-10.1L1066.1,1057.4z"/>
			<path class="st2" d="M1148.5,1089.4c-1.5-7.3-1.4-14.3,0.2-21.2c1.6-6.9,4.7-13.3,9.3-19.2c3.4-4.4,7.3-8,11.7-11
				c4.4-3,9-5,13.8-6.1c6.1-1.4,12.4-1.4,18.7,0.2c6.3,1.6,12.2,4.5,17.6,8.8c8.8,7,14.3,16,16.5,27c1.1,5.5,1.3,11.1,0.5,16.7
				c-0.8,5.6-2.5,10.9-5.2,16c-3.2,6.3-7.5,11.6-12.8,15.9c-5.3,4.3-11.2,7.2-17.6,8.7c-6.3,1.5-12.7,1.5-19.1,0.1
				c-6.4-1.4-12.1-4.2-17.4-8.4c-4.1-3.2-7.6-7.2-10.4-11.9C1151.6,1100,1149.6,1094.9,1148.5,1089.4z M1163.2,1087
				c2.5,12.5,7.8,22.3,15.8,29.5c3.6,3.2,7.2,5.3,10.7,6.3c3.5,1,7.4,1,11.5,0c4.2-1,7.7-2.7,10.5-5.2c2.8-2.5,5.3-6,7.4-10.6
				c4.6-10.1,5.6-21.5,3-34.2c-1.4-7-3.6-13.3-6.6-19.1c-3-5.8-6.5-10.5-10.5-14c-3.3-2.9-6.6-4.8-10.1-5.7
				c-3.5-0.9-7.3-0.8-11.6,0.2c-4.2,1-7.7,2.7-10.5,5c-2.8,2.3-5.1,5.6-7,9.8c-2.3,5-3.7,10.8-4.1,17.5
				C1161.2,1073,1161.7,1079.8,1163.2,1087z"/>
			<path class="st2" d="M1291.8,1051.2l6.6,22.3c1.3,4.3,2.4,7.4,3.5,9.3c1.1,1.9,2.4,3.4,4,4.3c1.4,0.8,2.9,1.3,4.4,1.4
				c1.5,0.1,3.5-0.2,5.8-0.8l0.4,1.5l-37.3,12.9l-0.4-1.5c2.2-0.9,3.9-1.9,5.2-2.9c1.2-1,2.2-2.3,2.9-3.9c0.8-1.8,1.2-3.8,1-6
				c-0.2-2.2-0.9-5.5-2.2-9.8l-13.7-46.5c-1.3-4.3-2.4-7.5-3.5-9.4c-1-1.9-2.4-3.3-4-4.2c-1.4-0.9-2.9-1.3-4.5-1.4
				c-1.6-0.1-3.5,0.2-5.7,0.9l-0.4-1.5l28.1-9.7c4.7-1.6,7.8-2.7,9.3-3.1c6.1-1.8,11.1-2.5,15-2.2c4.4,0.4,8.1,1.8,11.2,4.5
				c3.1,2.6,5.3,6.1,6.6,10.5c1.9,6.6,1.2,12.6-2.2,18.2c-1.1,1.7-2.3,3.2-3.8,4.5c-1.5,1.3-3.5,2.8-6.2,4.5
				c2.6,0.2,4.7,0.7,6.2,1.5c1.2,0.6,2.3,1.4,3.4,2.5c1.1,1.1,2.9,3,5.4,5.9c5.7,6.5,10,11.2,12.8,14.2c2.8,2.9,5.1,5,6.7,6.2
				c1.4,1,2.6,1.6,3.6,1.7c1.1,0.2,2.4,0.1,4.1-0.3l0.4,1.5l-19.4,6.7c-1.7-2-2.7-3.2-3.2-3.8l-7-8.6c-4.2-5.2-8.3-9.6-12.1-13.4
				c-3.8-3.7-7-6.1-9.6-7.1c-1.3-0.5-2.6-0.7-3.9-0.6c-1.3,0.1-2.8,0.4-4.6,1L1291.8,1051.2z M1291.4,1049.9l2.2-0.8
				c4.8-1.7,8.2-3.1,10.1-4.5c1.9-1.3,3.5-3.2,4.8-5.7c2.8-5.6,3.4-11.5,1.5-17.8c-1-3.3-2.5-6.2-4.5-8.8c-2-2.5-4.4-4.4-7.1-5.5
				c-2.1-0.9-4.3-1.2-6.7-1c-2.4,0.2-5.7,1-9.9,2.5l-2.4,0.8L1291.4,1049.9z"/>
			<path class="st2" d="M1383,1064l-9.4-25.4l1.3-0.5c4,5.7,7.8,10,11.4,12.7c6.7,5,13.2,6.2,19.4,3.4c4.4-1.9,7.4-5.1,9-9.5
				c1.7-4.4,1.6-9-0.2-13.8c-0.8-2.1-1.9-4.1-3.3-6c-1.4-1.9-3-3.4-4.6-4.5c-1.7-1.1-3.8-2-6.4-2.6s-6.3-1.1-11.2-1.6
				c-4.3-0.4-7.7-0.8-10.1-1.3c-2.4-0.5-4.5-1.2-6.2-2.1c-4.7-2.4-8.1-6.4-10.2-11.9c-1.3-3.4-1.9-6.9-1.8-10.7
				c0.1-3.7,0.8-7.2,2.3-10.4c2.5-5.8,6.5-9.9,12-12.3c1.8-0.8,3.5-1.3,5.2-1.6c1.7-0.3,4-0.4,6.9-0.4c2.2,0,3.7-0.1,4.4-0.1
				c0.8-0.1,1.4-0.2,1.9-0.5c1.3-0.6,1.8-2,1.5-4.3l1.3-0.6l9.6,24.2l-1.3,0.6c-2.5-3.4-4.5-6-6-7.8c-1.5-1.7-3.1-3.3-4.8-4.6
				c-3.1-2.4-6-3.8-8.8-4.4c-2.8-0.6-5.7-0.2-8.6,1.1c-4.2,1.9-7,4.9-8.3,9.1c-0.5,1.7-0.8,3.6-0.7,5.5c0.1,2,0.4,3.8,1.1,5.5
				c2.6,6.8,8.7,10.6,18.4,11.2l9.6,0.7c7.3,0.4,13.1,2,17.3,4.6c4.7,2.9,8.1,7.2,10.2,12.8c1.4,3.8,2.1,7.7,2,11.7
				c-0.2,5.6-1.7,10.6-4.7,15c-3,4.3-7.1,7.7-12.4,10c-4.9,2.1-10,3.2-15.3,3.1c-2.8-0.1-4.4-0.1-4.9-0.1c-0.5,0-1.1,0.2-1.6,0.4
				c-1.8,0.8-2.7,2.3-2.6,4.6L1383,1064z"/>
		</g>
		<g>
			<path class="st3" d="M810.3,1186.5l-1.6,17.9l-0.8-0.1c-0.2-0.8-0.3-1.4-0.4-1.8c-0.6-2.7-1-4.7-1.4-6c-0.7-2.4-1.9-4.6-3.5-6.7
				c-1.2-1.6-2.5-2.8-3.9-3.6c-1.4-0.8-3-1.4-4.9-1.6c-2.8-0.4-5.3,0-7.5,1c-1.9,0.9-3.8,2.3-5.6,4.3c-1.8,1.9-3.3,4.2-4.6,6.8
				c-1.8,3.7-3,8-3.6,12.9c-0.5,4.2-0.4,8,0.1,11.5c0.6,3.5,1.7,6.5,3.2,9c2.9,4.7,7.2,7.4,12.8,8.1c2.8,0.4,5.4,0.2,7.7-0.6
				c2.4-0.8,4.3-2,5.7-3.8c1.7-2,3.1-4.9,4.1-8.5l0.8,0.3c-1,4.1-2.4,7.3-4.3,9.6c-1.8,2.2-4.2,3.7-7.1,4.6
				c-2.9,0.9-6.2,1.1-9.8,0.6c-3.4-0.5-6.6-1.4-9.6-2.9c-4.7-2.4-8.2-6.1-10.5-11.1c-2.3-5-3-10.6-2.3-17c0.6-4.9,1.9-9.2,4-13.1
				c2.1-3.9,4.7-6.9,7.9-9c2.5-1.6,5.3-2.8,8.6-3.5c3.2-0.7,6.4-0.9,9.5-0.4c3,0.4,6.1,1.4,9.2,3.1l2.9,1.5c0.6,0.3,1.1,0.5,1.5,0.6
				c0.6,0.1,1.1-0.1,1.6-0.6c0.2-0.2,0.5-0.7,0.8-1.2L810.3,1186.5z"/>
			<path class="st3" d="M823.1,1243.2l0.1-1c2.5,0.2,4.5-0.4,5.9-1.8c0.8-0.8,1.4-1.8,1.8-3.1s0.6-3.3,0.8-6l2-29.5
				c0.2-2.8,0.2-4.9,0-6.3c-0.2-1.4-0.7-2.5-1.5-3.4c-0.6-0.7-1.4-1.3-2.2-1.7c-0.8-0.4-1.9-0.7-3.2-0.8l0.1-0.9l23.7,1.8l-0.1,0.9
				c-1.4,0-2.5,0.1-3.4,0.3c-0.9,0.3-1.7,0.7-2.4,1.3c-0.9,0.8-1.5,1.9-1.9,3.2c-0.4,1.3-0.7,3.4-0.9,6.2l-1.5,23.1
				c-0.2,3.6-0.3,6.2-0.3,8c0.1,1.7,0.3,3.2,0.7,4.3c0.7,2,1.9,3.5,3.6,4.5c1.6,1,3.9,1.7,6.7,1.9c2.9,0.2,5.4,0,7.5-0.7
				c2.1-0.7,3.8-1.9,5.2-3.5c0.9-1.1,1.7-2.4,2.4-3.9c0.7-1.5,1.3-3.4,1.9-5.9l0.9,0.1l-1.6,16.4L823.1,1243.2z"/>
			<path class="st3" d="M884.1,1220.5c0.1-4.5,1.1-8.7,2.9-12.5c1.9-3.8,4.5-7.1,8-9.9c2.6-2.1,5.4-3.6,8.4-4.7c3-1.1,6-1.6,9-1.5
				c3.8,0.1,7.5,1.1,11,3c3.5,1.9,6.6,4.5,9.2,7.9c4.3,5.5,6.3,11.6,6.2,18.5c-0.1,3.4-0.7,6.7-1.9,9.9c-1.2,3.2-2.9,6-5.2,8.6
				c-2.7,3.2-6,5.7-9.7,7.4c-3.7,1.7-7.5,2.5-11.5,2.4c-3.9-0.1-7.7-1.1-11.2-2.9c-3.6-1.8-6.6-4.4-9.1-7.6c-2-2.5-3.5-5.4-4.6-8.6
				C884.6,1227.2,884.1,1223.9,884.1,1220.5z M893.1,1221.3c-0.2,7.8,1.7,14.4,5.5,19.8c1.7,2.4,3.5,4.2,5.5,5.3
				c1.9,1.1,4.2,1.7,6.8,1.8c2.6,0.1,4.9-0.4,6.9-1.4c2-1,3.9-2.7,5.7-5.1c4-5.3,6.1-11.8,6.3-19.7c0.1-4.3-0.4-8.4-1.4-12.3
				c-1-3.9-2.5-7.2-4.4-9.9c-1.5-2.2-3.3-3.9-5.2-4.9c-1.9-1.1-4.2-1.6-6.9-1.7c-2.6-0.1-4.9,0.4-6.9,1.3c-1.9,0.9-3.8,2.5-5.4,4.7
				c-2,2.6-3.6,5.8-4.7,9.7S893.2,1216.8,893.1,1221.3z"/>
			<path class="st3" d="M957.8,1248.4l-0.2-16.6l0.9,0c1.1,4.2,2.4,7.5,3.9,9.9c2.8,4.4,6.2,6.6,10.3,6.5c2.9-0.1,5.2-1.2,7-3.3
				c1.8-2.1,2.7-4.7,2.6-7.9c0-1.4-0.3-2.8-0.7-4.2c-0.4-1.4-1-2.6-1.7-3.6c-0.7-1-1.8-2-3.1-2.9c-1.3-0.9-3.3-2.1-6-3.5
				c-2.4-1.2-4.2-2.3-5.5-3.1c-1.3-0.9-2.3-1.7-3.1-2.6c-2.2-2.5-3.3-5.5-3.4-9.1c0-2.2,0.3-4.4,1.1-6.5c0.8-2.1,1.9-3.9,3.4-5.4
				c2.6-2.7,5.7-4.1,9.2-4.2c1.2,0,2.2,0.1,3.2,0.3c1,0.2,2.3,0.7,4,1.4c1.3,0.5,2.1,0.8,2.5,1c0.4,0.1,0.8,0.2,1.2,0.2
				c0.9,0,1.4-0.7,1.7-2.1l0.9,0l0.6,16l-0.9,0c-0.7-2.5-1.3-4.5-1.8-5.8c-0.5-1.3-1.1-2.6-1.8-3.7c-1.3-2.1-2.6-3.6-4.1-4.5
				c-1.5-1-3.2-1.4-5.1-1.4c-2.8,0.1-4.9,1.1-6.5,3.2c-0.6,0.8-1.2,1.8-1.5,3c-0.4,1.1-0.5,2.3-0.5,3.4c0.1,4.5,2.8,8,8.2,10.6
				l5.3,2.6c4.1,2,7,4.2,8.9,6.6c2.1,2.7,3.2,6,3.3,9.7c0.1,2.5-0.4,4.8-1.2,7.1c-1.2,3.2-3.1,5.6-5.6,7.4c-2.5,1.8-5.6,2.7-9.1,2.8
				c-3.2,0.1-6.3-0.5-9.3-1.8c-1.6-0.7-2.5-1.1-2.8-1.2c-0.3-0.1-0.6-0.1-1-0.1c-1.2,0-2,0.7-2.4,2L957.8,1248.4z"/>
			<path class="st3" d="M1044.5,1189.5l1.4,13.2l-0.8,0.1c-0.5-2.2-1.1-4-1.9-5.5c-0.8-1.4-2-2.6-3.5-3.7c-1.2-0.9-2.6-1.4-4.2-1.7
				c-1.6-0.3-3.7-0.3-6.3-0.1l-8.5,0.6l1.4,24.1l2.2-0.2c2.2-0.2,3.9-0.4,5.1-0.8c1.1-0.4,2-1,2.7-1.9c0.6-0.8,1.1-1.8,1.4-2.9
				c0.3-1.1,0.5-2.7,0.6-4.7l0.9,0l1.1,21.5l-0.9,0.1c-0.3-2-0.8-3.7-1.3-4.9c-0.5-1.2-1.2-2.3-2-3.1c-0.8-0.8-1.8-1.4-3-1.7
				c-1.2-0.3-2.7-0.4-4.6-0.3l-2.1,0.1l0.5,9.2c0.2,3.7,0.5,6.3,0.7,8c0.3,1.7,0.7,3,1.2,4.1c1,1.9,2.3,3.2,4.1,4
				c1.8,0.8,4.1,1.1,6.9,0.9c3-0.2,5.4-0.8,7.4-1.7c2-0.9,3.5-2.3,4.7-4.1c0.8-1.2,1.5-2.6,1.9-4.1c0.5-1.5,0.9-3.5,1.2-5.9l0.9,0
				l0.4,16l-44.3,3l-0.1-0.9c1.4-0.2,2.5-0.5,3.4-0.9c0.9-0.4,1.6-1,2.3-1.9c0.7-0.9,1.2-2,1.4-3.4c0.2-1.3,0.2-3.4,0.1-6.1
				l-1.7-29.6c-0.2-2.7-0.4-4.7-0.8-6c-0.4-1.3-1-2.4-1.8-3.2c-0.7-0.7-1.5-1.2-2.4-1.5c-0.9-0.3-2.1-0.4-3.5-0.4l-0.1-0.9
				L1044.5,1189.5z"/>
			<path class="st3" d="M1082.1,1187c-1.6,0.2-3.2,0.4-5,0.7c-3.8,0.7-6.6,1.5-8.3,2.5c-1.8,1-3.2,2.6-4.2,4.8
				c-0.9,2-1.5,4.6-1.8,7.9l-0.9,0l-0.8-14.8l50-5.8l2.1,14.7l-0.8,0.2c-1-3.6-2.4-6.3-4-8.1c-1.6-1.7-3.8-2.9-6.6-3.4
				c-2.4-0.5-6.3-0.4-11.8,0.3l4.1,40.8c0.3,2.7,0.6,4.7,1,6c0.4,1.3,1,2.3,1.9,3.1c0.8,0.7,1.6,1.2,2.5,1.4
				c0.9,0.2,2.1,0.3,3.5,0.2l0.1,0.9l-23.6,2.8l-0.1-0.9c1.4-0.2,2.6-0.6,3.4-1c0.8-0.5,1.6-1.1,2.2-2c0.7-0.9,1.1-2.1,1.2-3.4
				c0.2-1.3,0.1-3.4-0.2-6.1L1082.1,1187z"/>
		</g>
	</g>
	<g>
		<g>
			<path class="st4" d="M578.2,980.1L578.2,980.1c0,0.1,0,0.2,0,0.2C578.2,980.2,578.2,980.2,578.2,980.1z"/>
		</g>
		<g>
			<path class="st4" d="M578.2,980.3C578.2,980.7,578.2,980.7,578.2,980.3L578.2,980.3z"/>
		</g>
		<g>
			<path class="st1" d="M90.2,533.1c4.4-8.3,10.9-12.7,14.1-11.9c3.2,0.8,7.3,23.1,10.7,30.1c7.8-16.3,14.7-23,17.4-21.4
				c2.8,1.6,6.5,27,10.6,33.9c7-14.4,21.8-26.2,25-25.8c4.3,16.2,12,34.4,14,38.2c7.9-19.3,14.4-28.3,20.8-27.4
				c6.4,0.9,5.7,31.5,8,39.6c11.7-16.9,18.6-25.2,25.6-22.3c7,2.9,7.6,26.6,9.1,37.7c8.1-14.3,16.4-22.9,21.7-22.8
				c5.3,0.1,10,28.6,12.7,35.5c10-21.6,15.5-29.1,22.6-29.3c7.1-0.2,16,29.9,17.7,34.5c5-17.1,12-32.6,16.6-32.1
				c4.6,0.5,13.2,28.7,14.9,33.3c15.5-13,22.4-20.1,27.1-11.6c4.8,8.5,12.3,33.2,1.1,32.9c-3.2-0.1-13.4-2.6-17.9-8.5
				c-4.5,12.1-5.4,20.1-16.5,24.5c-11.1,4.3-24.6-10.2-27.3-12.6c-2.4,11-0.5,23.7-8.4,27.3c-7.9,3.6-20.8-4-28.5-8.8
				c-3.5,12.9-1,28.7-8.1,33.1c-7.2,4.4-22.8-8.2-27.7-11c1.8,15,2.2,28.4-5.6,31.6c-7.9,3.2-20.6-11.2-25.5-17.9
				c-3.5,14.1,1.5,28.4-4.2,32c-5.7,3.7-21.7-11.6-26.9-18.3c-2.4,14.1,2.5,29.9-3.9,30.9c-6.4,1-25-21.3-30.1-30.6
				c-5,16.7,3.8,39.1-0.2,40.9c-3.9,1.8-15.4-6.1-23.7-16.3c-3.7,9.1-0.9,27.1-3.5,29.4c-9.5-3.3-12.7-3.4-20-10.5
				c-2.2,36.3,27.2,53.5,50,59c22.9,5.6,126.7-15.6,176.2-28.9c49.5-13.3,126.4-34.3,219.1-2.9c-63.3-2.7-94.4-2.8-107.2,0
				c-21.3,19.7-29.3,31.4-35.4,33.2c15.2,2.7,38.6-1.3,46.9-6.1c-4.2,12.5-15.8,24.9-17.6,27.1c28.8-7.3,50.9-14.8,63.1-22.1
				c-0.6,13.4-2.2,21.4-2.2,21.4c37.8-14.7,63.8-35.9,73.1-42.9c28.3-3,54.4,0.7,73.5,8.2c-4.9-16-8.3-32.6-5.6-48.3
				c16.4,46.3,36.6,70.4,37.5,78c3,23.8-100.3,23.1-158.2,80.6c19.2-3.3,46.7,1.2,46.7,1.2c-16.2,11.1-22.4,37.7-22.4,37.7
				c26.6-17.7,52.1-21.3,52.1-21.3c-11.5,13-13.2,42-13.4,46.3c20-26.7,42.9-36.4,47.5-37.4c-0.3,15.3,6.3,36.1,6.3,36.1
				c9.4-24.3,15.2-32.9,18.1-34c2.9-1.1,21.6,17.4,22.9,18.9c8.1-31.9,12.1-36.8,37.2-36.2c25.1,0.6,89.3-2.6,99.5-49.5
				c4.7-21.7,4.3-49.6-10.9-68c102.1,22.7,197.7,31.8,283.2,1c-1-21.6,6.1-68.2,15.4-71.6c-10.6,104.2,56.4,145.7,86.5,156.1
				c19.9,6.9,48,5.3,51,13.8c3,8.5,6.4,31.5,4.5,37.6c11.7-3.1,23-15.1,23-15.1c10.3,14.8,22.5,25.4,22.5,25.4
				c6.4-19.4,10.9-28,10.9-28c10.7,14.4,32,28,32,28c-0.1-13.8-0.4-31.8,2.6-37.1c2.9-5.3,24.8,17.5,50.1,21.5
				c-32.8-37.2-55.8-88.7-64.5-109.5c-8.8-20.9-23.9-24.9-35.6-21.2c-13.5,4.3-31-25.5-36.3-40.6c33.7-8.7,130.8,9.2,204,29.4
				c73.3,20.2,206.4,66.6,301,65.3c94.6-1.3,190-45.8,209-139.3c-16.9,18.2-71.2,52.5-78.2,49.1c-6.9-3.4-7-29.8-13-34.8
				c-7-1.4-41.9,43.7-49.7,39.8c-7.8-3.9-5.2-39.1-12.8-44.4c-11.1-0.8-47.8,32.3-55.2,31.7c-7.4-0.7-5.6-46.6-17.2-60.1
				c-8.5-2.7-53.9,22.1-63.2,16.7c-9.4-5.4-14.9-45.8-21.5-52.8c-10.8-3.5-48.1,14.4-70.4,9c-2.9-3.7-5.1-36-11.3-45
				c-5.6-4.1-54.6,2.1-61.3-3.4c-6.7-5.5-9.6-27.9-15.9-41c-6.9-3.8-47.9-1-50.8-3.5c-2.9-2.5-10.1-24.2-13-38.2
				c-3.4-1.8-46.5,7.4-52.6,4.1c-6-3.3-16.7-32-23.2-34.1c-6.5-2.1-42.3,0.2-56,4.9c-1.3-1-12.8-24.5-17.9-30.8
				c-8.5-3.9-45.4,7.7-49.9,4.6c-4.5-3-17.7-16.1-26.2-24.6c-13.5-1.3-43.1,16-56.5,17.7c-2.6-3.2-10.4-12.5-24.6-24.3
				c-12.2-0.6-41.9,14.6-64.5,21.8c-4.6-5.7-18.1-20.5-25.2-25.8c-14.8-3.1-52.4,21-52.4,21c-4.7-12-17.1-19.6-17.1-19.6
				c-19.8,0.6-39.7,17.1-39.7,17.1c-8.8-12.5-16.3-18.5-16.3-18.5c-16.4,4.6-37.5,16.7-45.4,21.4c-6.9-9.7-20.5-17.4-20.5-17.4
				c-17.1,5.3-38.8,25.4-46.7,31.7c-6.5-9.7-22-14.3-22-14.3c-18.1,4.5-35.6,27.4-42.1,34.1c-10.4-10.6-29-16.4-29-16.4
				c-24.6,9.7-33.8,22.5-36,26.6c-7.3-7.5-17.5-10-18.5-10c-12.8,4.3-28.1,14-28.1,14c-12.6-8.7-35.5-7.8-35.5-7.8
				c-10.4,4.3-25.1,13.8-24.8,17.3c-56.2-36.6-128.4-60.1-155.8-48.1c-22.4-22.3-38.6-15.6-46.8-12.2c-16.4,6.9-29.1,23.8-65.6,23.7
				c-36.5-0.2-113.5-23.5-118.3-27.5c-4.9-4-26.8-20.2-44.5-19.1S91,478.7,85.8,491.2C80.6,503.7,86.1,526.4,90.2,533.1z
				 M1761.3,810.3c6.1-0.7,13.3,8.5,11.1,12.8c-2.2,4.3-16.6,6.7-19.8-0.5C1749.3,815.5,1754.9,811,1761.3,810.3z M1702.1,794.6
				c10.1-0.6,19.8,9.9,18.2,15.5c-1.6,5.7-16.1,11.7-25.4,5.1C1685.5,808.6,1690.7,795.3,1702.1,794.6z M1685,757.5
				c5.8,1.3,3.5,12.6-2.8,11.1C1675.9,767.1,1676.8,755.7,1685,757.5z M1631.9,771.4c12.1-5.9,30.4,7.8,29.4,16.5
				c-1,8.6-19.9,11.8-27.6,7.1C1626,790.2,1625.7,774.5,1631.9,771.4z M1619.5,731.9c7.4-0.1,13.5,10,10.2,15.8
				c-3.3,5.8-12.3,1.5-13.9-1.5C1614.2,743.1,1614.2,732,1619.5,731.9z M1563.3,742.2c0.8-8.1,5.9-8.2,13.1-8.4
				c12.7-0.5,26.1,12.3,24.6,23c-1.5,10.7-20.5,8.8-26.7,5.7C1568,759.3,1562.5,750.3,1563.3,742.2z M1554.8,698.9
				c8.4,1.2,12.5,7.6,10.3,11.3c-2.2,3.7-17,7.9-19.6-0.5C1542.9,701.4,1546.6,697.8,1554.8,698.9z M1496.5,708.5
				c2.2-2.8,11.4-5.9,15.5-5.4c13.9,1.7,28.8,24.7,27.4,31c-1.4,6.4-12.9,12-32.1,0.3C1488.2,722.9,1494.3,711.3,1496.5,708.5z
				 M1500,664.1c12.2-0.5,10.7,11.4,10.1,13.4c-0.7,1.9-13.9,8.4-18.6-0.5C1486.8,668.1,1493.5,664.4,1500,664.1z M1456,735.8
				c0.4-4.4,2.3-5.5,5.9-5.9c7.8-0.8,9.5,8.2,5.4,12.2C1463.2,746.2,1455.6,740.3,1456,735.8z M1449.7,667.4
				c16-1.9,29.3,20.8,29.1,28.3c-0.2,7.5-10.9,15.2-32.1,10.4C1425.6,701.2,1437,668.9,1449.7,667.4z M1433.7,628.2
				c12.2-1.3,18.3,10.5,14.4,18.2c-4,7.7-17.1,11.2-19,0.4C1427.2,636,1426.7,628.9,1433.7,628.2z M155.8,783.5
				c-1.5,2.4-11.2,4-12.5-0.3c-1.4-4.3,2.5-11.4,4.8-14.9C153.3,772.3,157.3,781.2,155.8,783.5z M181.7,779.7
				c-2.3,3.1-10.7,3.7-12.3-0.3c-1.6-4,2-12.7,3.8-15.9C178,766.8,184,776.5,181.7,779.7z M210.8,775.6c-2.8,5-12.6,4.5-15.2-0.4
				c-2.6-4.9,0.4-18.3,1.5-22.7C203.3,757.3,213.6,770.6,210.8,775.6z M246,764c-0.8,4-12.3,9.5-17.8,4.3
				c-5.5-5.2-0.1-19.7,2.2-23.1C238.4,751.6,246.8,760,246,764z M281.5,745.5c-1.6,4.2-10.8,10.6-16.7,8.4c-5.9-2.3-5.8-28.3-4.7-32
				C268.2,726.5,283.1,741.3,281.5,745.5z M315.8,731.4c-3.8,4.2-12.9,5-17.5,2.5c-4.6-2.5-0.1-30.9,0.7-34.6
				C306.7,707.5,319.6,727.3,315.8,731.4z M350.3,715.3c-1.6,4.5-12.7,8.7-18.3,4.1c-5.6-4.7,2.9-31.6,4.5-34.7
				C345.3,695,351.9,710.8,350.3,715.3z M375.7,701.8c-11.7,4.6-7.5-29.7-5.9-35.5C379.5,674.3,391.6,695.6,375.7,701.8z
				 M652.3,547.5c-3.8,3.3-16.7,0.9-17.4-4.4c-0.6-5.2,3.4-9.1,10.1-10.8C652.5,530.4,656.1,544.2,652.3,547.5z M688.8,576.7
				c2.5,8.3-0.5,24.4-22.7,24.7c-22.1,0.3-28-14-28.8-22.2c-0.8-8.3,12.3-17.2,21.3-17.5C671.6,561.1,686.3,568.4,688.8,576.7z
				 M706.3,540.2c-7.1,11.8-19.6,6.1-22.2,1.3c-2.6-4.8,2.4-18.8,9.8-20.2C701.2,519.9,713.5,528.5,706.3,540.2z M727.4,748.7
				c-9.6,6.8-20.7,2.7-21.7-2.5c-1.1-5.1-0.2-16.8,4.8-19.7c5.1-2.9,8.1-5.7,14.5-3.6C732.7,725.3,736.9,741.9,727.4,748.7z
				 M738.4,771.3c11.1-1.5,11.4,3.5,12.4,11.8c1,8.3-6,19.9-11.3,18.8c-5.3-1.1-10.9-11.4-10.8-18.4
				C728.8,776.4,734.8,771.7,738.4,771.3z M676.2,787.9c-1-6.7,8.7-19.2,15.2-20.3c10.2-1.7,22.6,15.5,22.5,21.9
				c-0.1,6.4-10.5,9.6-21.1,9.7C682.1,799.1,677.2,794.6,676.2,787.9z M691.7,818c4.5-3.5,13.7-0.9,16.5,0.4
				c7,3.3,4.9,16.9,2.8,21.6c-2.2,4.7-14,9.2-19.7-0.5C685.6,829.8,687.2,821.5,691.7,818z M710.9,612.4c10.5-3.6,21.6,1.4,21.1,13
				c-0.5,11.7-13,22.8-25.4,12.9C694.3,628.5,708.2,613.3,710.9,612.4z M758.8,557c5.6,9.7-3.2,24.7-15.7,31
				c-12.4,6.3-26.6,2.8-30.1-6.6c-3.5-9.4,4.1-28.4,14-32.1C736.9,545.5,755.8,551.6,758.8,557z M776.2,528.2
				c-7.9,11.5-23.8,6.8-25.3-0.6c-1.6-7.5,7.8-20.5,15.9-20.6C777.6,506.8,784.1,516.7,776.2,528.2z M846.2,510
				c-5.4,12.1-29.4,8.3-30.8,0.8c-1.3-7.5,8.8-22.1,15.2-20.6c0.5,0.1,0.9,0.1,1.4,0.2C844,492.5,851.4,498.3,846.2,510z
				 M918.4,500.6c-1.6,9.6-30.1,9.3-34.9,1.8c-4.8-7.6,3.4-22,14.5-22C909.1,480.5,919.4,494.3,918.4,500.6z M966.9,500
				c-1.3,2.9-17.2,9.7-22.2,4.5c-5.1-5.2-4.4-10.5-1.9-14.7c2.5-4.2,9.5-5.3,15.1-5.7C967.4,483.4,968.2,497.1,966.9,500z
				 M1015.2,514.4c-4.2,4.3-22.3,5.6-24.8-5.9c-2.5-11.6,9.2-21.6,22-19.1C1021.8,491.2,1019.4,510.1,1015.2,514.4z M1042.2,529.5
				c-8-0.4-6.9-22.3,6.2-23.6C1056.5,505.2,1064.3,530.7,1042.2,529.5z M1065.5,559.9c0.6,13.3-13.4,23.6-25.6,22.5
				c-12.2-1.1-35.2-29.3-28.8-40.2C1017.4,531.3,1064.8,545.3,1065.5,559.9z M1095.6,525.4c-8.8,6.1-19.7,0.2-21.7-6.2
				c-2-6.3,7.6-21.4,25.8-20.4C1116.5,499.9,1104.4,519.3,1095.6,525.4z M1148.8,532.2c-6.3,6.4-15.2,1.3-16.2-3.1
				c-1-4.4,1.3-12.6,8.1-13.3C1149,514.9,1155.1,525.8,1148.8,532.2z M1189.2,527.8c-7.4,8.9-17,0.7-19.4-4.6
				c-2.4-5.3,4.9-20.4,14.8-19C1194.9,505.6,1196.7,518.9,1189.2,527.8z M1202.6,589.9c-3.2,12.2-35.9,13-43.5,2.3
				c-7.6-10.7-10.6-15.8-6.8-25c6.7-16.4,29.8-9.3,37.7-6.4C1197.9,563.8,1205.8,577.7,1202.6,589.9z M1151.6,711.7
				c4.2-2.3,11.9-0.5,15.9,5.2c4.1,5.7,4.8,18.7-4.4,23.6C1153.8,745.3,1143.2,716.3,1151.6,711.7z M1177.3,631.1
				c2.7-6.3,26.6-3.4,22.9,10.7C1196.5,655.8,1169.6,649,1177.3,631.1z M1266.1,540.9c-2,6.3-16,6.4-19.8,0.6
				c-3.9-5.8-4.3-15.6-1.1-17.9c3.2-2.3,7.5-4.6,12.3-4.9C1266.9,518.2,1268.2,534.6,1266.1,540.9z M1338.2,562.6
				c-0.5,5.9-7.4,11.4-14.1,9.5c-6.7-2-6.8-9.8-5.8-16.3c1-6.6,5.3-12.9,10.2-12.5C1337.6,543.8,1338.8,556.6,1338.2,562.6z
				 M1405.3,602.1c-6.6,4.4-11.4,0.4-10.6-5.7c1.2-9.3,4.9-10.1,10.1-8.2C1410,590.1,1412,597.7,1405.3,602.1z M1405,695.7
				c9.9-2.8,15.6,9.1,11.2,18.6c-4.4,9.4-17,4.9-19.6-0.5C1394,708.4,1399.1,697.3,1405,695.7z M1371.2,629.3
				c14.2-11.9,32.5,6.8,36.2,11.2c3.7,4.4,11.3,22.6,2.7,30.9c-8.6,8.2-29.3-0.7-37.2-8.5C1365.1,655.2,1366.7,633.1,1371.2,629.3z
				 M1358.7,611.4c-11.4,0.9-12.4-12-12.5-16.7c-0.1-4.8,3.7-11.9,8.3-11.9c10.4,0,16.3,5.9,17.2,13.7S1370.1,610.6,1358.7,611.4z
				 M1337.3,656.5c9.9-2.5,21.1,11.9,18.3,21.2c-2.7,9.3-18.1,6.4-23,2.2C1327.6,675.7,1323.3,660.1,1337.3,656.5z M1319.3,600.2
				c8.9,1,22.5,15.3,21.8,25.6c-0.6,10.3-14.9,14.7-25,16.1c-10,1.3-20.2-14.8-21.7-25C1293,606.6,1299.3,597.9,1319.3,600.2z
				 M1277.3,568.3c4.7-9.1,16.4-5.7,19.9-1.8c3.5,4,0.8,12.6-5.4,16.3C1285.6,586.6,1273.2,576.4,1277.3,568.3z M1269.8,634.7
				c10.1-2.5,17.1,10.7,17.6,17c0.5,6.3-4.1,15.2-12.1,13c-8-2.2-12.5-6.4-14.1-12.2C1259.6,646.8,1263.2,636.4,1269.8,634.7z
				 M1226.5,599.7c-6.8-16.4,3.9-27.1,19.1-27.4c16.7-0.3,20.2,11,23.7,15.9c8,11.1,4.8,24.3-8,29.9
				C1248.5,623.7,1233.3,616,1226.5,599.7z M1272,837.2c-5.1-2.2-4.8-7.2-4.2-10.1c1.6-8.1,18.1-4.6,17,0.4
				C1283.7,832.5,1277.1,839.3,1272,837.2z M1254.4,852.3c3.5-7.3,18.9,3.1,13.3,9.6C1262.2,868.5,1250,861.5,1254.4,852.3z
				 M1227.7,832c-3.3-5.7-5.1-12.5-2.6-17.4c5.2-10,28.9,7,27.5,14C1251.3,835.5,1231.1,837.7,1227.7,832z M1218.2,854.3
				c-0.9-4.7,12.9-6.8,14.3-1.7C1233.8,857.7,1220.8,868.1,1218.2,854.3z M1227.7,643.3c4.5,2.1,6.8,8.8,7.4,12.7
				c0.6,4-6.7,8.2-11.7,2.9C1218.4,653.6,1217.9,638.6,1227.7,643.3z M1206.1,544.8c-1.1-7.3,5.1-12.3,11.5-12.2
				c9.9,0.2,13,13.5,7.2,20C1218.9,559.1,1207.2,552.2,1206.1,544.8z M1208,791.4c-10.1,1.4-8-15-1.8-17
				C1215,771.6,1218.1,790,1208,791.4z M1191.2,813.7c5.6-4,21.3-6.3,20.8,7c-0.5,13.3-12.1,13.8-16.6,10.2
				C1190.9,827.3,1188.6,815.6,1191.2,813.7z M1187.9,746.7c-5.3-8.9-3-24,1.7-26.8c8-4.7,20.3,6.9,20.6,15.1
				C1210.5,743.3,1193.2,755.6,1187.9,746.7z M1169,788c-7.4-6.8-8.6-28.9-4.3-30.2c10.2-2.9,21.4,7.5,22.4,14.9
				C1188.3,780.2,1176.4,794.8,1169,788z M1166.2,800.1c4.4,1.4,9.5,14.1,8.4,21c-1.1,6.9-19.6,7.2-22.9-0.6
				C1148.5,812.7,1157.5,797.3,1166.2,800.1z M1132.1,749c8-7.5,24.6,32.5,9.5,39.6C1126.4,795.7,1115.8,764.3,1132.1,749z
				 M1129.4,621.1c8.9-2.7,16.4,4.4,17.2,13.1c0.8,8.7-10.9,13.4-16.2,8.9C1125,638.5,1121.3,623.6,1129.4,621.1z M1078.7,565.9
				c1.3-13.7,36-24.6,44.8-15.1c8.9,9.5,13.7,36.9-3.1,41.7C1103.6,597.4,1077.4,579.5,1078.7,565.9z M1078,663
				c4.5-7,19.7-0.7,20.8,5.2c1.1,5.9-8.5,19.7-17.7,11.5C1071.9,671.5,1076.4,665.5,1078,663z M1070.6,592.7
				c10.1-0.3,29.2,24.5,20.9,33.3c-8.3,8.8-31.5,0.8-33.9-4.2C1055.3,616.8,1056.9,593.1,1070.6,592.7z M1018,653.4
				c-1.9-4.6,3.5-13.2,7.7-15.2c8.8-4.2,19.2,10.6,10.9,19.7C1028.3,667,1019.8,658,1018,653.4z M1012.4,689.4c7.8-3,13,13.1,4,15.3
				C1007.5,706.9,1005.4,692.2,1012.4,689.4z M975.9,586.1c3.9-7.9,18.4-8.7,23.7-6.2c5.4,2.4,15.1,10,14.7,18.4
				c-0.4,10.7-18.1,14.1-28.7,11.4C975.2,607.1,972,594,975.9,586.1z M958.2,560.2c-14-2.5-27.6-19-23.7-30.1
				c3.9-11.1,27.8-10.8,37.6-7.7c9.8,3.1,21.7,20.9,22,27.8C994.8,563.5,972.2,562.6,958.2,560.2z M955.5,619.9
				c11.7-2,17,23.6-0.6,26.3C937.4,649,941.9,622.2,955.5,619.9z M937.2,679.6c7-1.8,8.6,11.4-0.3,12.5
				C928.1,693.2,931.5,681,937.2,679.6z M910.8,581.8c2.4-7.9,11.3-9,18.1-8.3c9.3,1,13,14,11.9,20c-1.1,6.1-14.3,11.6-20.4,10.1
				C914.3,602.1,908.4,589.7,910.8,581.8z M892.6,629.5c5.7-3.8,10.6,0,12.2,4.8c2.9,8.6-12.4,15.6-16.4,10
				C884.2,638.6,886.8,633.3,892.6,629.5z M886.5,567.3c-17.4-2-23.9-10.4-27.6-20.8c-3.7-10.5,5-25.7,10.2-26.6
				c5.2-0.9,42.7,4.5,47.8,17.2C920.9,546.9,903.9,569.3,886.5,567.3z M860.2,679.2c7.9-0.1,8.8,14.6,1.9,15.5
				C855.2,695.6,852.1,679.3,860.2,679.2z M836.7,593.9c-0.8-7,3.9-14.4,7.6-15.7c12.7-4.4,28.1-0.8,29.3,8.7
				c1.3,9.5-7,18.1-17.6,19.4C845.3,607.6,837.4,600.9,836.7,593.9z M824.2,640.5c7-2.5,13.1,8.3,7.3,15.9
				c-5.8,7.6-12.1,1.8-12.9-4.6C817.7,645.4,820,642,824.2,640.5z M783.9,558.7c-2.2-9.9,3.7-25.4,13.9-27.3
				c12.2-2.3,38.6,2.8,39.9,10.6c1.3,7.7-7.8,28.3-23.7,30.8C798,575.3,786.1,568.6,783.9,558.7z M787.2,619.7
				c-15,1-19.9-13.3-20.7-19.9c-0.8-6.7,0.5-12.6,7.5-15.4c11.4-4.7,25.7,4.3,27.8,10.7C803.9,601.5,802.3,618.7,787.2,619.7z
				 M769.7,648.3c6.3-1.2,10.8,13.3,2.6,16.2C764.1,667.5,757.6,650.6,769.7,648.3z M777.8,787.4c-3.6,2.6-12.9-4.8-12.8-8.1
				c0.1-3.2,3.1-7.1,6.6-7.6C781.4,770.4,781.4,784.8,777.8,787.4z M764.2,815.5c0.7-3.5,6.4-8.4,7.7-10c3.4-3.8,9.2,16.8,5.3,20.5
				C773.3,829.8,763.6,819,764.2,815.5z M768.3,847c6.6-1.8,8.9,11.9,2.2,15.2C763.7,865.5,755.2,850.6,768.3,847z M760.9,751.5
				c-7.5,4.6-14.7-2.3-14.3-7c0.4-4.8,4.4-18.3,7.4-16.7C762.9,732.5,768.4,746.9,760.9,751.5z M755.3,876.2
				c6.5,1.9-2.4,12.7-6.2,11.6C745.3,886.7,746.8,873.7,755.3,876.2z M725.5,848.6c-1.9-5.1,3.2-27.3,7.7-29.4
				c3.6-1.7,20,11.7,16.5,20.5C746.1,848.5,727.5,853.8,725.5,848.6z M710.4,880.8c-3.4-5.9,1.8-14.3,6-16.2
				c10.4-4.5,17.1,7.8,13.5,13.1C726.2,883.1,713.8,886.7,710.4,880.8z M701.9,892.9c8.9,2.5,13.4,6.1,13.6,8
				c0.2,1.9-21.3,7.9-23,1.1C690.9,895.2,698.7,892,701.9,892.9z M590.1,899.1c-18.6,2.4-12.8-6.7-11.9-7c0.9-0.3,16.6-12.5,30.9-11
				C617,882,608.7,896.7,590.1,899.1z M629.5,900.6c7.7-1.9,0,14.7-10.7,19.9C608.1,925.6,610.9,905.1,629.5,900.6z M644.9,885.2
				c-6.8,2-19.3,5.6-21.5-0.5c-2.2-6.2,14.3-21.6,24.2-16.9C652.3,869.9,651.7,883.2,644.9,885.2z M665.2,894.9
				c9.8-0.8,7.7,14.2-1.3,14.3c-9,0.1-14-5.1-13.9-7.5C650.2,899.3,656.3,895.6,665.2,894.9z M684.4,856.2
				c11.8,3.8,10,15.2,5.5,19.9c-4.5,4.7-20.3,8.4-24.2,1.3C661.7,870.3,671.5,852.1,684.4,856.2z M682.6,728.5
				c6.6-0.5,7.8,15.2,4.4,20.8c-3.4,5.6-15.5,7.9-18,1.8C666.5,744.9,672.4,729.2,682.6,728.5z M668.9,654.2
				c8.8-3.8,14.9,5.9,15,10.8c0.1,4.9-2.1,7.8-10.8,10.2c-8.7,2.4-10.5-0.5-11.6-8.3C660.5,659.3,664.2,656.3,668.9,654.2z
				 M614.5,625.4c-0.3-8,4-13.7,10.9-14.9c11.2-1.9,22.2,9.1,19.5,19.6c-2.7,10.6-10.7,15.2-19,14.4
				C617.5,643.8,614.8,633.4,614.5,625.4z M606.2,564.3c-13.5-2.7-23.5-6.1-22.9-11.1c0.6-4.9,6.6-8.5,15-10.4
				c10.9-2.5,26.5,4.7,24.8,11.3C621.5,560.7,619.7,567,606.2,564.3z M590.2,641.8c5.7-0.7,11.4,8.3,9.8,14.1
				c-1.6,5.8-14.7,10.8-17,2C580.7,649,582.8,642.7,590.2,641.8z M562.1,579.2c0.9-9.6,10.1-8.4,21.8-6.6c18.3,2.8,19,7.1,19.3,16.3
				c0.3,9.2-10.1,11.6-21.4,11.8C570.5,600.9,561.1,588.7,562.1,579.2z M535.7,595.2c9.1-7.3,19.8,4.8,24.1,12.3
				c4.3,7.6,4.5,20.3-5.9,23.5c-10.4,3.2-20.8-4.2-22.8-15.5C529.1,604.4,531.2,598.9,535.7,595.2z M531,572.8
				c-7.1-3.4-28-14.5-30.3-18.8c-2.4-4.3-6.6-15.3,2.4-20.4c9-5.1,23.4-0.6,34.9,13.9c4.3,5.4,14.9,16.9,11.3,22.6
				C545.7,575.8,538,576.2,531,572.8z M482.1,592.8c-6.8-3.9-10.5-13.8-5.7-18.8c4.8-4.9,24.7-2.7,32.5,9.1
				C522.7,604,488.9,596.7,482.1,592.8z M454.8,616c4-4.1,13.4-5.4,18.5-4.5c14.6,2.6,13.6,17.4,9.3,23.9
				c-4.3,6.5-17.7,12.3-28.4,6.7C443.5,636.5,450.8,620.1,454.8,616z M430.1,644.2c11.8,0,18.1,5.8,17.9,13.5
				c-0.2,7.7-9.4,15.7-18.5,12.6C420.2,667,418.3,644.1,430.1,644.2z M410.5,675.1c6.1,2.8,8.6,13.5-0.3,15.4
				C400.4,686.5,398.6,675.8,410.5,675.1z M311.7,519.7c5.4-8.6,24.3-7.6,39-6.7c-0.4-13.8,4.2-17.6,14.8-16.3
				c10.5,1.3,10,9.7,3.3,23.4c41.8-10.9,77.5-10.3,96.2-0.5c18.7,9.8,19.1,26.3,9.6,33c-19.2-15.5-26.4-31.4-84.5-18.4
				c1.6,5.4,14.4,17.9,24.6,24.8c0,0,7.9-11.5,13.1-14.8c0,0,3.3,16.6,2.2,25.1c0,0,4.3,3.6,17.8,8.7c-43.9,18-82.3-5.5-99.5-38.4
				c-11.1,10.9-22.8,9.8-29.9,6.4C311.2,542.5,306.4,528.3,311.7,519.7z M254.8,525.7c0.1-6.4,6.1-8.4,17.9-8.9
				c16-0.7,23.5,7,22.5,16.5s-3.5,13.5-21.9,12.2C254.9,544.3,254.7,532,254.8,525.7z M207,516.7c0.3-3.7,3.4-7.9,14.9-7.1
				c16.7,1.2,19.2,12.5,19.1,16.4c-0.1,4-2.7,12.2-19.6,8C204.5,530,206.7,520.5,207,516.7z M123,480.1c3.5-12.7,12.5-10.1,16.2-9.2
				c3.7,0.9,20.3,15.4,23.5,18.9c7.6-1.1,16.9,2.5,21.3,3.8c9.8,2.8,11.5,13,10.7,19.3c-0.9,6.4-12,10.3-19.3,6.7
				c-7.3-3.6-13.2-15.8-14.1-20c-5.5,5.2-19.1,8.5-27.4,6.2C125.4,503.5,119.5,492.7,123,480.1z"/>
		</g>
	</g>
</g>
</svg>
