<svg width="882" height="882" viewBox="0 0 882 882" fill="none" xmlns="http://www.w3.org/2000/svg">
<circle cx="441" cy="441" r="441" fill="#006B54"/>
<g clip-path="url(#clip0)">
<path d="M690.749 660.587L545.149 514.987C573.352 480.15 590.333 435.883 590.333 387.67C590.333 275.926 499.41 185.003 387.666 185.003C275.922 185.003 185 275.925 185 387.669C185 499.413 275.923 590.336 387.667 590.336C435.88 590.336 480.147 573.355 514.984 545.152L660.584 690.752C664.744 694.912 670.205 697.003 675.667 697.003C681.129 697.003 686.59 694.912 690.75 690.752C699.091 682.411 699.091 668.928 690.749 660.587ZM387.667 547.669C299.432 547.669 227.667 475.904 227.667 387.669C227.667 299.434 299.432 227.669 387.667 227.669C475.902 227.669 547.667 299.434 547.667 387.669C547.667 475.904 475.901 547.669 387.667 547.669Z" fill="white"/>
</g>
<defs>
<clipPath id="clip0">
<rect width="512.005" height="512.005" fill="white" transform="translate(185 185)"/>
</clipPath>
</defs>
</svg>
